<?xml version="1.0" encoding="UTF-8"?>
<svg viewBox="0 0 200 240" width="140" height="168" data-asset="random" data-asset-name="변덕쟁이" data-om-id="jsx:/https:/61b94bfd-445d-4bc1-b890-ed607e683758.claudeusercontent.com/v1/design/projects/61b94bfd-445d-4bc1-b890-ed607e683758/serve/characters.jsx:306:7:5" xmlns="http://www.w3.org/2000/svg" xmlns:xlink="http://www.w3.org/1999/xlink"><polygon points="40,20 70,80 60,84" fill="#C84030" data-om-id="jsx:/https:/61b94bfd-445d-4bc1-b890-ed607e683758.claudeusercontent.com/v1/design/projects/61b94bfd-445d-4bc1-b890-ed607e683758/serve/characters.jsx:15327:337:7"/><polygon points="40,20 60,84 50,86" fill="#8C2818" data-om-id="jsx:/https:/61b94bfd-445d-4bc1-b890-ed607e683758.claudeusercontent.com/v1/design/projects/61b94bfd-445d-4bc1-b890-ed607e683758/serve/characters.jsx:15387:338:7"/><polygon points="160,20 130,80 140,84" fill="#F8C940" data-om-id="jsx:/https:/61b94bfd-445d-4bc1-b890-ed607e683758.claudeusercontent.com/v1/design/projects/61b94bfd-445d-4bc1-b890-ed607e683758/serve/characters.jsx:15449:339:7"/><polygon points="160,20 140,84 150,86" fill="#C89020" data-om-id="jsx:/https:/61b94bfd-445d-4bc1-b890-ed607e683758.claudeusercontent.com/v1/design/projects/61b94bfd-445d-4bc1-b890-ed607e683758/serve/characters.jsx:15512:340:7"/><circle cx="40" cy="20" r="6" fill="#FFE48A" data-om-id="jsx:/https:/61b94bfd-445d-4bc1-b890-ed607e683758.claudeusercontent.com/v1/design/projects/61b94bfd-445d-4bc1-b890-ed607e683758/serve/characters.jsx:15597:342:7"/><polygon points="36,18 44,18 40,24" fill="#D9A848" data-om-id="jsx:/https:/61b94bfd-445d-4bc1-b890-ed607e683758.claudeusercontent.com/v1/design/projects/61b94bfd-445d-4bc1-b890-ed607e683758/serve/characters.jsx:15653:343:7"/><circle cx="160" cy="20" r="6" fill="#FFE48A" data-om-id="jsx:/https:/61b94bfd-445d-4bc1-b890-ed607e683758.claudeusercontent.com/v1/design/projects/61b94bfd-445d-4bc1-b890-ed607e683758/serve/characters.jsx:15715:344:7"/><polygon points="156,18 164,18 160,24" fill="#D9A848" data-om-id="jsx:/https:/61b94bfd-445d-4bc1-b890-ed607e683758.claudeusercontent.com/v1/design/projects/61b94bfd-445d-4bc1-b890-ed607e683758/serve/characters.jsx:15772:345:7"/><polygon points="50,80 100,60 100,98 60,100" fill="#C84030" data-om-id="jsx:/https:/61b94bfd-445d-4bc1-b890-ed607e683758.claudeusercontent.com/v1/design/projects/61b94bfd-445d-4bc1-b890-ed607e683758/serve/characters.jsx:15877:347:7"/><polygon points="100,60 150,80 140,100 100,98" fill="#F8C940" data-om-id="jsx:/https:/61b94bfd-445d-4bc1-b890-ed607e683758.claudeusercontent.com/v1/design/projects/61b94bfd-445d-4bc1-b890-ed607e683758/serve/characters.jsx:15946:348:7"/><polygon points="50,80 100,60 60,96" fill="#8C2818" data-om-id="jsx:/https:/61b94bfd-445d-4bc1-b890-ed607e683758.claudeusercontent.com/v1/design/projects/61b94bfd-445d-4bc1-b890-ed607e683758/serve/characters.jsx:16017:349:7"/><polygon points="150,80 100,60 140,96" fill="#C89020" data-om-id="jsx:/https:/61b94bfd-445d-4bc1-b890-ed607e683758.claudeusercontent.com/v1/design/projects/61b94bfd-445d-4bc1-b890-ed607e683758/serve/characters.jsx:16080:350:7"/><polygon points="40,98 100,94 160,98 150,108 50,108" fill="#7A5A38" data-om-id="jsx:/https:/61b94bfd-445d-4bc1-b890-ed607e683758.claudeusercontent.com/v1/design/projects/61b94bfd-445d-4bc1-b890-ed607e683758/serve/characters.jsx:16168:352:7"/><polygon points="68,108 100,104 100,160 78,162" fill="#E2B894" data-om-id="jsx:/https:/61b94bfd-445d-4bc1-b890-ed607e683758.claudeusercontent.com/v1/design/projects/61b94bfd-445d-4bc1-b890-ed607e683758/serve/characters.jsx:16264:354:7"/><polygon points="100,104 132,108 122,162 100,160" fill="#F8DCBA" data-om-id="jsx:/https:/61b94bfd-445d-4bc1-b890-ed607e683758.claudeusercontent.com/v1/design/projects/61b94bfd-445d-4bc1-b890-ed607e683758/serve/characters.jsx:16338:355:7"/><polygon points="78,162 122,162 100,174" fill="#B88560" data-om-id="jsx:/https:/61b94bfd-445d-4bc1-b890-ed607e683758.claudeusercontent.com/v1/design/projects/61b94bfd-445d-4bc1-b890-ed607e683758/serve/characters.jsx:16414:356:7"/><circle cx="86" cy="128" r="6" fill="#FFFFFF" data-om-id="jsx:/https:/61b94bfd-445d-4bc1-b890-ed607e683758.claudeusercontent.com/v1/design/projects/61b94bfd-445d-4bc1-b890-ed607e683758/serve/characters.jsx:16511:358:7"/><circle cx="86" cy="128" r="3" fill="#1F160C" data-om-id="jsx:/https:/61b94bfd-445d-4bc1-b890-ed607e683758.claudeusercontent.com/v1/design/projects/61b94bfd-445d-4bc1-b890-ed607e683758/serve/characters.jsx:16569:359:7"/><polygon points="104,128 122,128 122,134 104,134" fill="#1F160C" data-om-id="jsx:/https:/61b94bfd-445d-4bc1-b890-ed607e683758.claudeusercontent.com/v1/design/projects/61b94bfd-445d-4bc1-b890-ed607e683758/serve/characters.jsx:16623:360:7"/><polygon points="106,130 110,130 108,133" fill="#FFFFFF" data-om-id="jsx:/https:/61b94bfd-445d-4bc1-b890-ed607e683758.claudeusercontent.com/v1/design/projects/61b94bfd-445d-4bc1-b890-ed607e683758/serve/characters.jsx:16696:361:7"/><polygon points="80,148 120,148 100,168" fill="#B74A3C" data-om-id="jsx:/https:/61b94bfd-445d-4bc1-b890-ed607e683758.claudeusercontent.com/v1/design/projects/61b94bfd-445d-4bc1-b890-ed607e683758/serve/characters.jsx:16797:363:7"/><polygon points="80,148 100,168 100,158" fill="#7A2818" data-om-id="jsx:/https:/61b94bfd-445d-4bc1-b890-ed607e683758.claudeusercontent.com/v1/design/projects/61b94bfd-445d-4bc1-b890-ed607e683758/serve/characters.jsx:16863:364:7"/><polygon points="90,150 94,150 92,156" fill="#FFFFFF" data-om-id="jsx:/https:/61b94bfd-445d-4bc1-b890-ed607e683758.claudeusercontent.com/v1/design/projects/61b94bfd-445d-4bc1-b890-ed607e683758/serve/characters.jsx:16929:365:7"/><polygon points="0,180 86,178 80,240 0,240" fill="#C84030" data-om-id="jsx:/https:/61b94bfd-445d-4bc1-b890-ed607e683758.claudeusercontent.com/v1/design/projects/61b94bfd-445d-4bc1-b890-ed607e683758/serve/characters.jsx:17026:367:7"/><polygon points="200,180 114,178 120,240 200,240" fill="#F8C940" data-om-id="jsx:/https:/61b94bfd-445d-4bc1-b890-ed607e683758.claudeusercontent.com/v1/design/projects/61b94bfd-445d-4bc1-b890-ed607e683758/serve/characters.jsx:17094:368:7"/><polygon points="86,178 114,178 120,240 80,240" fill="#C89020" data-om-id="jsx:/https:/61b94bfd-445d-4bc1-b890-ed607e683758.claudeusercontent.com/v1/design/projects/61b94bfd-445d-4bc1-b890-ed607e683758/serve/characters.jsx:17168:369:7"/><polygon points="14,196 32,194 30,212 12,214" fill="#F8C940" data-om-id="jsx:/https:/61b94bfd-445d-4bc1-b890-ed607e683758.claudeusercontent.com/v1/design/projects/61b94bfd-445d-4bc1-b890-ed607e683758/serve/characters.jsx:17274:371:7"/><polygon points="48,206 64,204 62,222 46,224" fill="#F8C940" data-om-id="jsx:/https:/61b94bfd-445d-4bc1-b890-ed607e683758.claudeusercontent.com/v1/design/projects/61b94bfd-445d-4bc1-b890-ed607e683758/serve/characters.jsx:17344:372:7"/><polygon points="138,196 156,194 158,212 140,214" fill="#C84030" data-om-id="jsx:/https:/61b94bfd-445d-4bc1-b890-ed607e683758.claudeusercontent.com/v1/design/projects/61b94bfd-445d-4bc1-b890-ed607e683758/serve/characters.jsx:17414:373:7"/><polygon points="170,206 186,204 188,222 172,224" fill="#C84030" data-om-id="jsx:/https:/61b94bfd-445d-4bc1-b890-ed607e683758.claudeusercontent.com/v1/design/projects/61b94bfd-445d-4bc1-b890-ed607e683758/serve/characters.jsx:17488:374:7"/><polygon points="86,178 114,178 110,190 90,190" fill="#B88560" data-om-id="jsx:/https:/61b94bfd-445d-4bc1-b890-ed607e683758.claudeusercontent.com/v1/design/projects/61b94bfd-445d-4bc1-b890-ed607e683758/serve/characters.jsx:17581:376:7"/></svg>