<?xml version="1.0" encoding="UTF-8"?>
<svg viewBox="0 0 200 240" width="140" height="168" data-asset="grudger" data-asset-name="원한의 상인" data-om-id="jsx:/https:/61b94bfd-445d-4bc1-b890-ed607e683758.claudeusercontent.com/v1/design/projects/61b94bfd-445d-4bc1-b890-ed607e683758/serve/characters.jsx:306:7:5" xmlns="http://www.w3.org/2000/svg" xmlns:xlink="http://www.w3.org/1999/xlink"><polygon points="100,28 56,114 144,114" fill="#1F1A14" data-om-id="jsx:/https:/61b94bfd-445d-4bc1-b890-ed607e683758.claudeusercontent.com/v1/design/projects/61b94bfd-445d-4bc1-b890-ed607e683758/serve/characters.jsx:23680:496:7"/><polygon points="100,28 144,114 124,102" fill="#3A322A" data-om-id="jsx:/https:/61b94bfd-445d-4bc1-b890-ed607e683758.claudeusercontent.com/v1/design/projects/61b94bfd-445d-4bc1-b890-ed607e683758/serve/characters.jsx:23746:497:7"/><polygon points="100,28 56,114 76,102" fill="#0E0A06" data-om-id="jsx:/https:/61b94bfd-445d-4bc1-b890-ed607e683758.claudeusercontent.com/v1/design/projects/61b94bfd-445d-4bc1-b890-ed607e683758/serve/characters.jsx:23813:498:7"/><polygon points="56,114 100,120 30,180" fill="#0E0A06" data-om-id="jsx:/https:/61b94bfd-445d-4bc1-b890-ed607e683758.claudeusercontent.com/v1/design/projects/61b94bfd-445d-4bc1-b890-ed607e683758/serve/characters.jsx:23906:500:7"/><polygon points="144,114 100,120 170,180" fill="#1F1A14" data-om-id="jsx:/https:/61b94bfd-445d-4bc1-b890-ed607e683758.claudeusercontent.com/v1/design/projects/61b94bfd-445d-4bc1-b890-ed607e683758/serve/characters.jsx:23974:501:7"/><polygon points="30,180 100,120 100,210 20,220" fill="#1F1A14" data-om-id="jsx:/https:/61b94bfd-445d-4bc1-b890-ed607e683758.claudeusercontent.com/v1/design/projects/61b94bfd-445d-4bc1-b890-ed607e683758/serve/characters.jsx:24042:502:7"/><polygon points="170,180 100,120 100,210 180,220" fill="#3A322A" data-om-id="jsx:/https:/61b94bfd-445d-4bc1-b890-ed607e683758.claudeusercontent.com/v1/design/projects/61b94bfd-445d-4bc1-b890-ed607e683758/serve/characters.jsx:24116:503:7"/><polygon points="56,114 60,118 100,128 144,114 140,118" fill="#4A1208" data-om-id="jsx:/https:/61b94bfd-445d-4bc1-b890-ed607e683758.claudeusercontent.com/v1/design/projects/61b94bfd-445d-4bc1-b890-ed607e683758/serve/characters.jsx:24222:505:7"/><polygon points="64,118 100,118 138,118 130,134 70,134" fill="#0E0A06" data-om-id="jsx:/https:/61b94bfd-445d-4bc1-b890-ed607e683758.claudeusercontent.com/v1/design/projects/61b94bfd-445d-4bc1-b890-ed607e683758/serve/characters.jsx:24335:507:7"/><polygon points="74,128 100,124 100,164 84,164" fill="#EDE0C0" data-om-id="jsx:/https:/61b94bfd-445d-4bc1-b890-ed607e683758.claudeusercontent.com/v1/design/projects/61b94bfd-445d-4bc1-b890-ed607e683758/serve/characters.jsx:24452:509:7"/><polygon points="100,124 126,128 118,164 100,164" fill="#E2B894" data-om-id="jsx:/https:/61b94bfd-445d-4bc1-b890-ed607e683758.claudeusercontent.com/v1/design/projects/61b94bfd-445d-4bc1-b890-ed607e683758/serve/characters.jsx:24524:510:7"/><polygon points="84,164 118,164 100,176" fill="#B88560" data-om-id="jsx:/https:/61b94bfd-445d-4bc1-b890-ed607e683758.claudeusercontent.com/v1/design/projects/61b94bfd-445d-4bc1-b890-ed607e683758/serve/characters.jsx:24600:511:7"/><polygon points="76,128 88,140 86,144 74,132" fill="#4A1208" data-om-id="jsx:/https:/61b94bfd-445d-4bc1-b890-ed607e683758.claudeusercontent.com/v1/design/projects/61b94bfd-445d-4bc1-b890-ed607e683758/serve/characters.jsx:24711:513:7"/><polygon points="80,134 92,146 91,148 79,136" fill="#7A2818" data-om-id="jsx:/https:/61b94bfd-445d-4bc1-b890-ed607e683758.claudeusercontent.com/v1/design/projects/61b94bfd-445d-4bc1-b890-ed607e683758/serve/characters.jsx:24782:514:7"/><polygon points="80,136 92,136 90,140 82,140" fill="#E2B894" data-om-id="jsx:/https:/61b94bfd-445d-4bc1-b890-ed607e683758.claudeusercontent.com/v1/design/projects/61b94bfd-445d-4bc1-b890-ed607e683758/serve/characters.jsx:24898:516:7"/><polygon points="108,136 122,136 120,142 110,142" fill="#FFFFFF" data-om-id="jsx:/https:/61b94bfd-445d-4bc1-b890-ed607e683758.claudeusercontent.com/v1/design/projects/61b94bfd-445d-4bc1-b890-ed607e683758/serve/characters.jsx:24970:517:7"/><circle cx="115" cy="139" r="2" fill="#1F160C" data-om-id="jsx:/https:/61b94bfd-445d-4bc1-b890-ed607e683758.claudeusercontent.com/v1/design/projects/61b94bfd-445d-4bc1-b890-ed607e683758/serve/characters.jsx:25047:518:7"/><polygon points="100,144 96,156 100,160" fill="#B88560" data-om-id="jsx:/https:/61b94bfd-445d-4bc1-b890-ed607e683758.claudeusercontent.com/v1/design/projects/61b94bfd-445d-4bc1-b890-ed607e683758/serve/characters.jsx:25121:520:7"/><polygon points="100,144 104,156 100,160" fill="#7B4F30" data-om-id="jsx:/https:/61b94bfd-445d-4bc1-b890-ed607e683758.claudeusercontent.com/v1/design/projects/61b94bfd-445d-4bc1-b890-ed607e683758/serve/characters.jsx:25188:521:7"/><polygon points="84,164 116,164 100,170" fill="#4A1208" data-om-id="jsx:/https:/61b94bfd-445d-4bc1-b890-ed607e683758.claudeusercontent.com/v1/design/projects/61b94bfd-445d-4bc1-b890-ed607e683758/serve/characters.jsx:25276:523:7"/><polygon points="84,170 88,166 92,170" fill="#4A1208" data-om-id="jsx:/https:/61b94bfd-445d-4bc1-b890-ed607e683758.claudeusercontent.com/v1/design/projects/61b94bfd-445d-4bc1-b890-ed607e683758/serve/characters.jsx:25342:524:7"/><polygon points="108,170 112,166 116,170" fill="#4A1208" data-om-id="jsx:/https:/61b94bfd-445d-4bc1-b890-ed607e683758.claudeusercontent.com/v1/design/projects/61b94bfd-445d-4bc1-b890-ed607e683758/serve/characters.jsx:25406:525:7"/><polygon points="20,220 100,210 180,220 200,240 0,240" fill="#1F1A14" data-om-id="jsx:/https:/61b94bfd-445d-4bc1-b890-ed607e683758.claudeusercontent.com/v1/design/projects/61b94bfd-445d-4bc1-b890-ed607e683758/serve/characters.jsx:25515:527:7"/><polygon points="40,224 100,216 160,224 150,240 50,240" fill="#0E0A06" data-om-id="jsx:/https:/61b94bfd-445d-4bc1-b890-ed607e683758.claudeusercontent.com/v1/design/projects/61b94bfd-445d-4bc1-b890-ed607e683758/serve/characters.jsx:25596:528:7"/><polygon points="20,220 36,222 40,240 20,240" fill="#4A1208" data-om-id="jsx:/https:/61b94bfd-445d-4bc1-b890-ed607e683758.claudeusercontent.com/v1/design/projects/61b94bfd-445d-4bc1-b890-ed607e683758/serve/characters.jsx:25680:529:7"/><polygon points="180,220 164,222 160,240 180,240" fill="#4A1208" data-om-id="jsx:/https:/61b94bfd-445d-4bc1-b890-ed607e683758.claudeusercontent.com/v1/design/projects/61b94bfd-445d-4bc1-b890-ed607e683758/serve/characters.jsx:25751:530:7"/><polygon points="156,210 168,206 170,214 158,218" fill="#D9A848" data-om-id="jsx:/https:/61b94bfd-445d-4bc1-b890-ed607e683758.claudeusercontent.com/v1/design/projects/61b94bfd-445d-4bc1-b890-ed607e683758/serve/characters.jsx:25859:532:7"/><polygon points="160,214 168,214 168,238 160,238" fill="#A0A0A0" data-om-id="jsx:/https:/61b94bfd-445d-4bc1-b890-ed607e683758.claudeusercontent.com/v1/design/projects/61b94bfd-445d-4bc1-b890-ed607e683758/serve/characters.jsx:25935:533:7"/><polygon points="160,214 168,214 164,238" fill="#D0D0D0" data-om-id="jsx:/https:/61b94bfd-445d-4bc1-b890-ed607e683758.claudeusercontent.com/v1/design/projects/61b94bfd-445d-4bc1-b890-ed607e683758/serve/characters.jsx:26009:534:7"/></svg>