<?xml version="1.0" encoding="UTF-8"?>
<svg viewBox="0 0 200 240" width="140" height="168" data-asset="baker" data-asset-name="빵집 주인" data-om-id="jsx:/https:/61b94bfd-445d-4bc1-b890-ed607e683758.claudeusercontent.com/v1/design/projects/61b94bfd-445d-4bc1-b890-ed607e683758/serve/characters.jsx:306:7:5" xmlns="http://www.w3.org/2000/svg" xmlns:xlink="http://www.w3.org/1999/xlink"><polygon points="100,20 70,60 130,60" fill="#FFFFFF" data-om-id="jsx:/https:/61b94bfd-445d-4bc1-b890-ed607e683758.claudeusercontent.com/v1/design/projects/61b94bfd-445d-4bc1-b890-ed607e683758/serve/characters.jsx:20651:438:7"/><polygon points="100,20 130,60 116,54" fill="#C4BAA4" data-om-id="jsx:/https:/61b94bfd-445d-4bc1-b890-ed607e683758.claudeusercontent.com/v1/design/projects/61b94bfd-445d-4bc1-b890-ed607e683758/serve/characters.jsx:20716:439:7"/><polygon points="70,60 130,60 100,68" fill="#EAE2D0" data-om-id="jsx:/https:/61b94bfd-445d-4bc1-b890-ed607e683758.claudeusercontent.com/v1/design/projects/61b94bfd-445d-4bc1-b890-ed607e683758/serve/characters.jsx:20782:440:7"/><polygon points="50,68 100,52 150,68 144,88 56,88" fill="#FFFFFF" data-om-id="jsx:/https:/61b94bfd-445d-4bc1-b890-ed607e683758.claudeusercontent.com/v1/design/projects/61b94bfd-445d-4bc1-b890-ed607e683758/serve/characters.jsx:20847:441:7"/><polygon points="50,68 150,68 100,76" fill="#EAE2D0" data-om-id="jsx:/https:/61b94bfd-445d-4bc1-b890-ed607e683758.claudeusercontent.com/v1/design/projects/61b94bfd-445d-4bc1-b890-ed607e683758/serve/characters.jsx:20925:442:7"/><polygon points="56,88 144,88 100,98" fill="#C4BAA4" data-om-id="jsx:/https:/61b94bfd-445d-4bc1-b890-ed607e683758.claudeusercontent.com/v1/design/projects/61b94bfd-445d-4bc1-b890-ed607e683758/serve/characters.jsx:20990:443:7"/><polygon points="48,92 152,92 148,102 52,102" fill="#C4BAA4" data-om-id="jsx:/https:/61b94bfd-445d-4bc1-b890-ed607e683758.claudeusercontent.com/v1/design/projects/61b94bfd-445d-4bc1-b890-ed607e683758/serve/characters.jsx:21078:445:7"/><circle cx="40" cy="50" r="3" fill="#FFFFFF" data-om-id="jsx:/https:/61b94bfd-445d-4bc1-b890-ed607e683758.claudeusercontent.com/v1/design/projects/61b94bfd-445d-4bc1-b890-ed607e683758/serve/characters.jsx:21177:447:7"/><circle cx="166" cy="46" r="4" fill="#FFFFFF" data-om-id="jsx:/https:/61b94bfd-445d-4bc1-b890-ed607e683758.claudeusercontent.com/v1/design/projects/61b94bfd-445d-4bc1-b890-ed607e683758/serve/characters.jsx:21234:448:7"/><circle cx="172" cy="56" r="2" fill="#EAE2D0" data-om-id="jsx:/https:/61b94bfd-445d-4bc1-b890-ed607e683758.claudeusercontent.com/v1/design/projects/61b94bfd-445d-4bc1-b890-ed607e683758/serve/characters.jsx:21292:449:7"/><polygon points="58,102 100,98 100,168 78,170" fill="#E2B894" data-om-id="jsx:/https:/61b94bfd-445d-4bc1-b890-ed607e683758.claudeusercontent.com/v1/design/projects/61b94bfd-445d-4bc1-b890-ed607e683758/serve/characters.jsx:21383:451:7"/><polygon points="100,98 142,102 122,170 100,168" fill="#F8DCBA" data-om-id="jsx:/https:/61b94bfd-445d-4bc1-b890-ed607e683758.claudeusercontent.com/v1/design/projects/61b94bfd-445d-4bc1-b890-ed607e683758/serve/characters.jsx:21456:452:7"/><polygon points="78,170 122,170 100,184" fill="#B88560" data-om-id="jsx:/https:/61b94bfd-445d-4bc1-b890-ed607e683758.claudeusercontent.com/v1/design/projects/61b94bfd-445d-4bc1-b890-ed607e683758/serve/characters.jsx:21531:453:7"/><polygon points="56,108 70,104 64,130" fill="#4D3520" data-om-id="jsx:/https:/61b94bfd-445d-4bc1-b890-ed607e683758.claudeusercontent.com/v1/design/projects/61b94bfd-445d-4bc1-b890-ed607e683758/serve/characters.jsx:21629:455:7"/><polygon points="144,108 130,104 136,130" fill="#4D3520" data-om-id="jsx:/https:/61b94bfd-445d-4bc1-b890-ed607e683758.claudeusercontent.com/v1/design/projects/61b94bfd-445d-4bc1-b890-ed607e683758/serve/characters.jsx:21692:456:7"/><circle cx="86" cy="130" r="3" fill="#1F160C" data-om-id="jsx:/https:/61b94bfd-445d-4bc1-b890-ed607e683758.claudeusercontent.com/v1/design/projects/61b94bfd-445d-4bc1-b890-ed607e683758/serve/characters.jsx:21787:458:7"/><circle cx="114" cy="130" r="3" fill="#1F160C" data-om-id="jsx:/https:/61b94bfd-445d-4bc1-b890-ed607e683758.claudeusercontent.com/v1/design/projects/61b94bfd-445d-4bc1-b890-ed607e683758/serve/characters.jsx:21841:459:7"/><ellipse cx="76" cy="148" rx="8" ry="6" fill="#F4A8A0" data-om-id="jsx:/https:/61b94bfd-445d-4bc1-b890-ed607e683758.claudeusercontent.com/v1/design/projects/61b94bfd-445d-4bc1-b890-ed607e683758/serve/characters.jsx:21926:461:7"/><ellipse cx="124" cy="148" rx="8" ry="6" fill="#F4A8A0" data-om-id="jsx:/https:/61b94bfd-445d-4bc1-b890-ed607e683758.claudeusercontent.com/v1/design/projects/61b94bfd-445d-4bc1-b890-ed607e683758/serve/characters.jsx:21990:462:7"/><polygon points="80,148 100,144 100,156 86,158" fill="#4D3520" data-om-id="jsx:/https:/61b94bfd-445d-4bc1-b890-ed607e683758.claudeusercontent.com/v1/design/projects/61b94bfd-445d-4bc1-b890-ed607e683758/serve/characters.jsx:22083:464:7"/><polygon points="120,148 100,144 100,156 114,158" fill="#4D3520" data-om-id="jsx:/https:/61b94bfd-445d-4bc1-b890-ed607e683758.claudeusercontent.com/v1/design/projects/61b94bfd-445d-4bc1-b890-ed607e683758/serve/characters.jsx:22155:465:7"/><polygon points="80,148 100,144 120,148 100,150" fill="#7A5A38" data-om-id="jsx:/https:/61b94bfd-445d-4bc1-b890-ed607e683758.claudeusercontent.com/v1/design/projects/61b94bfd-445d-4bc1-b890-ed607e683758/serve/characters.jsx:22229:466:7"/><polygon points="92,158 108,158 100,164" fill="#B74A3C" data-om-id="jsx:/https:/61b94bfd-445d-4bc1-b890-ed607e683758.claudeusercontent.com/v1/design/projects/61b94bfd-445d-4bc1-b890-ed607e683758/serve/characters.jsx:22327:468:7"/><polygon points="86,184 114,184 110,196 90,196" fill="#B88560" data-om-id="jsx:/https:/61b94bfd-445d-4bc1-b890-ed607e683758.claudeusercontent.com/v1/design/projects/61b94bfd-445d-4bc1-b890-ed607e683758/serve/characters.jsx:22412:470:7"/><polygon points="0,196 90,196 84,240 0,240" fill="#FFFFFF" data-om-id="jsx:/https:/61b94bfd-445d-4bc1-b890-ed607e683758.claudeusercontent.com/v1/design/projects/61b94bfd-445d-4bc1-b890-ed607e683758/serve/characters.jsx:22512:472:7"/><polygon points="200,196 110,196 116,240 200,240" fill="#EAE2D0" data-om-id="jsx:/https:/61b94bfd-445d-4bc1-b890-ed607e683758.claudeusercontent.com/v1/design/projects/61b94bfd-445d-4bc1-b890-ed607e683758/serve/characters.jsx:22583:473:7"/><polygon points="90,196 110,196 116,240 84,240" fill="#C4BAA4" data-om-id="jsx:/https:/61b94bfd-445d-4bc1-b890-ed607e683758.claudeusercontent.com/v1/design/projects/61b94bfd-445d-4bc1-b890-ed607e683758/serve/characters.jsx:22660:474:7"/><circle cx="40" cy="222" r="4" fill="#EAE2D0" data-om-id="jsx:/https:/61b94bfd-445d-4bc1-b890-ed607e683758.claudeusercontent.com/v1/design/projects/61b94bfd-445d-4bc1-b890-ed607e683758/serve/characters.jsx:22762:476:7"/><circle cx="150" cy="216" r="3" fill="#EAE2D0" data-om-id="jsx:/https:/61b94bfd-445d-4bc1-b890-ed607e683758.claudeusercontent.com/v1/design/projects/61b94bfd-445d-4bc1-b890-ed607e683758/serve/characters.jsx:22820:477:7"/><circle cx="170" cy="232" r="5" fill="#EAE2D0" data-om-id="jsx:/https:/61b94bfd-445d-4bc1-b890-ed607e683758.claudeusercontent.com/v1/design/projects/61b94bfd-445d-4bc1-b890-ed607e683758/serve/characters.jsx:22879:478:7"/><polygon points="64,210 136,210 144,228 56,228" fill="#C49838" data-om-id="jsx:/https:/61b94bfd-445d-4bc1-b890-ed607e683758.claudeusercontent.com/v1/design/projects/61b94bfd-445d-4bc1-b890-ed607e683758/serve/characters.jsx:22971:480:7"/><polygon points="64,210 136,210 100,216" fill="#E0B85C" data-om-id="jsx:/https:/61b94bfd-445d-4bc1-b890-ed607e683758.claudeusercontent.com/v1/design/projects/61b94bfd-445d-4bc1-b890-ed607e683758/serve/characters.jsx:23043:481:7"/><polygon points="64,228 136,228 144,228 56,228" fill="#4D3520" data-om-id="jsx:/https:/61b94bfd-445d-4bc1-b890-ed607e683758.claudeusercontent.com/v1/design/projects/61b94bfd-445d-4bc1-b890-ed607e683758/serve/characters.jsx:23108:482:7"/><polygon points="74,214 84,224 82,226 72,216" fill="#4D3520" data-om-id="jsx:/https:/61b94bfd-445d-4bc1-b890-ed607e683758.claudeusercontent.com/v1/design/projects/61b94bfd-445d-4bc1-b890-ed607e683758/serve/characters.jsx:23210:484:7"/><polygon points="98,212 108,222 106,224 96,214" fill="#4D3520" data-om-id="jsx:/https:/61b94bfd-445d-4bc1-b890-ed607e683758.claudeusercontent.com/v1/design/projects/61b94bfd-445d-4bc1-b890-ed607e683758/serve/characters.jsx:23280:485:7"/><polygon points="120,214 130,224 128,226 118,216" fill="#4D3520" data-om-id="jsx:/https:/61b94bfd-445d-4bc1-b890-ed607e683758.claudeusercontent.com/v1/design/projects/61b94bfd-445d-4bc1-b890-ed607e683758/serve/characters.jsx:23352:486:7"/></svg>