<?xml version="1.0" encoding="UTF-8"?>
<svg viewBox="0 0 200 240" width="140" height="168" data-asset="bard" data-asset-name="음유시인" data-om-id="jsx:/https:/61b94bfd-445d-4bc1-b890-ed607e683758.claudeusercontent.com/v1/design/projects/61b94bfd-445d-4bc1-b890-ed607e683758/serve/characters.jsx:306:7:5" xmlns="http://www.w3.org/2000/svg" xmlns:xlink="http://www.w3.org/1999/xlink"><polygon points="56,20 110,40 70,56" fill="#3D5A88" data-om-id="jsx:/https:/61b94bfd-445d-4bc1-b890-ed607e683758.claudeusercontent.com/v1/design/projects/61b94bfd-445d-4bc1-b890-ed607e683758/serve/characters.jsx:29672:609:7"/><polygon points="56,20 110,40 80,38" fill="#6090B0" data-om-id="jsx:/https:/61b94bfd-445d-4bc1-b890-ed607e683758.claudeusercontent.com/v1/design/projects/61b94bfd-445d-4bc1-b890-ed607e683758/serve/characters.jsx:29732:610:7"/><polygon points="110,40 70,56 88,46" fill="#1F3358" data-om-id="jsx:/https:/61b94bfd-445d-4bc1-b890-ed607e683758.claudeusercontent.com/v1/design/projects/61b94bfd-445d-4bc1-b890-ed607e683758/serve/characters.jsx:29792:611:7"/><polygon points="56,68 100,38 140,68 100,76" fill="#3D5A88" data-om-id="jsx:/https:/61b94bfd-445d-4bc1-b890-ed607e683758.claudeusercontent.com/v1/design/projects/61b94bfd-445d-4bc1-b890-ed607e683758/serve/characters.jsx:29875:613:7"/><polygon points="100,38 140,68 124,64" fill="#6090B0" data-om-id="jsx:/https:/61b94bfd-445d-4bc1-b890-ed607e683758.claudeusercontent.com/v1/design/projects/61b94bfd-445d-4bc1-b890-ed607e683758/serve/characters.jsx:29943:614:7"/><polygon points="100,38 56,68 76,64" fill="#1F3358" data-om-id="jsx:/https:/61b94bfd-445d-4bc1-b890-ed607e683758.claudeusercontent.com/v1/design/projects/61b94bfd-445d-4bc1-b890-ed607e683758/serve/characters.jsx:30005:615:7"/><polygon points="50,76 150,76 144,86 56,86" fill="#1F3358" data-om-id="jsx:/https:/61b94bfd-445d-4bc1-b890-ed607e683758.claudeusercontent.com/v1/design/projects/61b94bfd-445d-4bc1-b890-ed607e683758/serve/characters.jsx:30088:617:7"/><polygon points="50,86 70,86 60,140" fill="#A8845C" data-om-id="jsx:/https:/61b94bfd-445d-4bc1-b890-ed607e683758.claudeusercontent.com/v1/design/projects/61b94bfd-445d-4bc1-b890-ed607e683758/serve/characters.jsx:30187:619:7"/><polygon points="150,86 130,86 140,140" fill="#A8845C" data-om-id="jsx:/https:/61b94bfd-445d-4bc1-b890-ed607e683758.claudeusercontent.com/v1/design/projects/61b94bfd-445d-4bc1-b890-ed607e683758/serve/characters.jsx:30247:620:7"/><polygon points="50,86 60,140 56,140" fill="#7A5A38" data-om-id="jsx:/https:/61b94bfd-445d-4bc1-b890-ed607e683758.claudeusercontent.com/v1/design/projects/61b94bfd-445d-4bc1-b890-ed607e683758/serve/characters.jsx:30310:621:7"/><polygon points="150,86 140,140 144,140" fill="#7A5A38" data-om-id="jsx:/https:/61b94bfd-445d-4bc1-b890-ed607e683758.claudeusercontent.com/v1/design/projects/61b94bfd-445d-4bc1-b890-ed607e683758/serve/characters.jsx:30371:622:7"/><polygon points="66,86 100,82 100,156 80,158" fill="#F8DCBA" data-om-id="jsx:/https:/61b94bfd-445d-4bc1-b890-ed607e683758.claudeusercontent.com/v1/design/projects/61b94bfd-445d-4bc1-b890-ed607e683758/serve/characters.jsx:30454:624:7"/><polygon points="100,82 134,86 120,158 100,156" fill="#E2B894" data-om-id="jsx:/https:/61b94bfd-445d-4bc1-b890-ed607e683758.claudeusercontent.com/v1/design/projects/61b94bfd-445d-4bc1-b890-ed607e683758/serve/characters.jsx:30525:625:7"/><polygon points="80,158 120,158 100,172" fill="#B88560" data-om-id="jsx:/https:/61b94bfd-445d-4bc1-b890-ed607e683758.claudeusercontent.com/v1/design/projects/61b94bfd-445d-4bc1-b890-ed607e683758/serve/characters.jsx:30598:626:7"/><ellipse cx="86" cy="114" rx="5" ry="3" fill="#FFFFFF" data-om-id="jsx:/https:/61b94bfd-445d-4bc1-b890-ed607e683758.claudeusercontent.com/v1/design/projects/61b94bfd-445d-4bc1-b890-ed607e683758/serve/characters.jsx:30697:628:7"/><ellipse cx="114" cy="114" rx="5" ry="3" fill="#FFFFFF" data-om-id="jsx:/https:/61b94bfd-445d-4bc1-b890-ed607e683758.claudeusercontent.com/v1/design/projects/61b94bfd-445d-4bc1-b890-ed607e683758/serve/characters.jsx:30763:629:7"/><circle cx="86" cy="115" r="2" fill="#1F3358" data-om-id="jsx:/https:/61b94bfd-445d-4bc1-b890-ed607e683758.claudeusercontent.com/v1/design/projects/61b94bfd-445d-4bc1-b890-ed607e683758/serve/characters.jsx:30830:630:7"/><circle cx="114" cy="115" r="2" fill="#1F3358" data-om-id="jsx:/https:/61b94bfd-445d-4bc1-b890-ed607e683758.claudeusercontent.com/v1/design/projects/61b94bfd-445d-4bc1-b890-ed607e683758/serve/characters.jsx:30885:631:7"/><polygon points="80,110 92,110 90,112" fill="#1F160C" data-om-id="jsx:/https:/61b94bfd-445d-4bc1-b890-ed607e683758.claudeusercontent.com/v1/design/projects/61b94bfd-445d-4bc1-b890-ed607e683758/serve/characters.jsx:30941:632:7"/><polygon points="108,110 120,110 118,112" fill="#1F160C" data-om-id="jsx:/https:/61b94bfd-445d-4bc1-b890-ed607e683758.claudeusercontent.com/v1/design/projects/61b94bfd-445d-4bc1-b890-ed607e683758/serve/characters.jsx:31002:633:7"/><polygon points="100,124 96,142 100,146" fill="#B88560" data-om-id="jsx:/https:/61b94bfd-445d-4bc1-b890-ed607e683758.claudeusercontent.com/v1/design/projects/61b94bfd-445d-4bc1-b890-ed607e683758/serve/characters.jsx:31085:635:7"/><polygon points="100,124 104,142 100,146" fill="#E2B894" data-om-id="jsx:/https:/61b94bfd-445d-4bc1-b890-ed607e683758.claudeusercontent.com/v1/design/projects/61b94bfd-445d-4bc1-b890-ed607e683758/serve/characters.jsx:31151:636:7"/><polygon points="92,150 108,150 102,160 98,160" fill="#B74A3C" data-om-id="jsx:/https:/61b94bfd-445d-4bc1-b890-ed607e683758.claudeusercontent.com/v1/design/projects/61b94bfd-445d-4bc1-b890-ed607e683758/serve/characters.jsx:31263:638:7"/><polygon points="92,150 108,150 100,154" fill="#7A2818" data-om-id="jsx:/https:/61b94bfd-445d-4bc1-b890-ed607e683758.claudeusercontent.com/v1/design/projects/61b94bfd-445d-4bc1-b890-ed607e683758/serve/characters.jsx:31335:639:7"/><polygon points="98,155 102,155 100,160" fill="#3F0808" data-om-id="jsx:/https:/61b94bfd-445d-4bc1-b890-ed607e683758.claudeusercontent.com/v1/design/projects/61b94bfd-445d-4bc1-b890-ed607e683758/serve/characters.jsx:31400:640:7"/><polygon points="86,172 114,172 110,186 90,186" fill="#B88560" data-om-id="jsx:/https:/61b94bfd-445d-4bc1-b890-ed607e683758.claudeusercontent.com/v1/design/projects/61b94bfd-445d-4bc1-b890-ed607e683758/serve/characters.jsx:31483:642:7"/><polygon points="0,186 60,186 50,240 0,240" fill="#7A2818" data-om-id="jsx:/https:/61b94bfd-445d-4bc1-b890-ed607e683758.claudeusercontent.com/v1/design/projects/61b94bfd-445d-4bc1-b890-ed607e683758/serve/characters.jsx:31586:644:7"/><polygon points="200,186 140,186 150,240 200,240" fill="#3D5A88" data-om-id="jsx:/https:/61b94bfd-445d-4bc1-b890-ed607e683758.claudeusercontent.com/v1/design/projects/61b94bfd-445d-4bc1-b890-ed607e683758/serve/characters.jsx:31653:645:7"/><polygon points="60,186 140,186 150,240 50,240" fill="#D9A848" data-om-id="jsx:/https:/61b94bfd-445d-4bc1-b890-ed607e683758.claudeusercontent.com/v1/design/projects/61b94bfd-445d-4bc1-b890-ed607e683758/serve/characters.jsx:31726:646:7"/><polygon points="68,194 86,194 80,240 56,240" fill="#FFE48A" data-om-id="jsx:/https:/61b94bfd-445d-4bc1-b890-ed607e683758.claudeusercontent.com/v1/design/projects/61b94bfd-445d-4bc1-b890-ed607e683758/serve/characters.jsx:31797:647:7"/><polygon points="114,194 132,194 144,240 120,240" fill="#FFE48A" data-om-id="jsx:/https:/61b94bfd-445d-4bc1-b890-ed607e683758.claudeusercontent.com/v1/design/projects/61b94bfd-445d-4bc1-b890-ed607e683758/serve/characters.jsx:31866:648:7"/><polygon points="14,210 186,196 188,206 16,220" fill="#5C3B22" data-om-id="jsx:/https:/61b94bfd-445d-4bc1-b890-ed607e683758.claudeusercontent.com/v1/design/projects/61b94bfd-445d-4bc1-b890-ed607e683758/serve/characters.jsx:31973:650:7"/><polygon points="160,200 180,196 184,210 162,214" fill="#A8845C" data-om-id="jsx:/https:/61b94bfd-445d-4bc1-b890-ed607e683758.claudeusercontent.com/v1/design/projects/61b94bfd-445d-4bc1-b890-ed607e683758/serve/characters.jsx:32088:652:7"/><polygon points="160,200 180,196 170,202" fill="#C09866" data-om-id="jsx:/https:/61b94bfd-445d-4bc1-b890-ed607e683758.claudeusercontent.com/v1/design/projects/61b94bfd-445d-4bc1-b890-ed607e683758/serve/characters.jsx:32161:653:7"/></svg>