<?xml version="1.0" encoding="UTF-8"?>
<svg viewBox="0 0 750 2400" preserveAspectRatio="none" width="100%" height="100%" data-asset="map-bg" data-asset-name="Map Background" data-om-id="jsx:/https:/61b94bfd-445d-4bc1-b890-ed607e683758.claudeusercontent.com/v1/design/projects/61b94bfd-445d-4bc1-b890-ed607e683758/serve/screens-aux.jsx:628:16:5" style="position: absolute; inset: 0px; z-index: 0;" xmlns="http://www.w3.org/2000/svg" xmlns:xlink="http://www.w3.org/1999/xlink"><defs data-om-id="jsx:/https:/61b94bfd-445d-4bc1-b890-ed607e683758.claudeusercontent.com/v1/design/projects/61b94bfd-445d-4bc1-b890-ed607e683758/serve/screens-aux.jsx:871:25:7"><linearGradient id="sky-city" x1="0" y1="0" x2="0" y2="1" data-om-id="jsx:/https:/61b94bfd-445d-4bc1-b890-ed607e683758.claudeusercontent.com/v1/design/projects/61b94bfd-445d-4bc1-b890-ed607e683758/serve/screens-aux.jsx:886:26:9"><stop offset="0%" stop-color="#1F1A3A" data-om-id="jsx:/https:/61b94bfd-445d-4bc1-b890-ed607e683758.claudeusercontent.com/v1/design/projects/61b94bfd-445d-4bc1-b890-ed607e683758/serve/screens-aux.jsx:955:27:11"/><stop offset="40%" stop-color="#503660" data-om-id="jsx:/https:/61b94bfd-445d-4bc1-b890-ed607e683758.claudeusercontent.com/v1/design/projects/61b94bfd-445d-4bc1-b890-ed607e683758/serve/screens-aux.jsx:1007:28:11"/><stop offset="100%" stop-color="#A55060" data-om-id="jsx:/https:/61b94bfd-445d-4bc1-b890-ed607e683758.claudeusercontent.com/v1/design/projects/61b94bfd-445d-4bc1-b890-ed607e683758/serve/screens-aux.jsx:1059:29:11"/></linearGradient><linearGradient id="sky-outskirts" x1="0" y1="0" x2="0" y2="1" data-om-id="jsx:/https:/61b94bfd-445d-4bc1-b890-ed607e683758.claudeusercontent.com/v1/design/projects/61b94bfd-445d-4bc1-b890-ed607e683758/serve/screens-aux.jsx:1135:31:9"><stop offset="0%" stop-color="#D08858" data-om-id="jsx:/https:/61b94bfd-445d-4bc1-b890-ed607e683758.claudeusercontent.com/v1/design/projects/61b94bfd-445d-4bc1-b890-ed607e683758/serve/screens-aux.jsx:1209:32:11"/><stop offset="60%" stop-color="#E8C880" data-om-id="jsx:/https:/61b94bfd-445d-4bc1-b890-ed607e683758.claudeusercontent.com/v1/design/projects/61b94bfd-445d-4bc1-b890-ed607e683758/serve/screens-aux.jsx:1261:33:11"/><stop offset="100%" stop-color="#88A8C8" data-om-id="jsx:/https:/61b94bfd-445d-4bc1-b890-ed607e683758.claudeusercontent.com/v1/design/projects/61b94bfd-445d-4bc1-b890-ed607e683758/serve/screens-aux.jsx:1313:34:11"/></linearGradient><linearGradient id="sky-village" x1="0" y1="0" x2="0" y2="1" data-om-id="jsx:/https:/61b94bfd-445d-4bc1-b890-ed607e683758.claudeusercontent.com/v1/design/projects/61b94bfd-445d-4bc1-b890-ed607e683758/serve/screens-aux.jsx:1389:36:9"><stop offset="0%" stop-color="#88A8C8" data-om-id="jsx:/https:/61b94bfd-445d-4bc1-b890-ed607e683758.claudeusercontent.com/v1/design/projects/61b94bfd-445d-4bc1-b890-ed607e683758/serve/screens-aux.jsx:1461:37:11"/><stop offset="100%" stop-color="#C8DCE8" data-om-id="jsx:/https:/61b94bfd-445d-4bc1-b890-ed607e683758.claudeusercontent.com/v1/design/projects/61b94bfd-445d-4bc1-b890-ed607e683758/serve/screens-aux.jsx:1513:38:11"/></linearGradient><linearGradient id="sky-country" x1="0" y1="0" x2="0" y2="1" data-om-id="jsx:/https:/61b94bfd-445d-4bc1-b890-ed607e683758.claudeusercontent.com/v1/design/projects/61b94bfd-445d-4bc1-b890-ed607e683758/serve/screens-aux.jsx:1589:40:9"><stop offset="0%" stop-color="#C8DCE8" data-om-id="jsx:/https:/61b94bfd-445d-4bc1-b890-ed607e683758.claudeusercontent.com/v1/design/projects/61b94bfd-445d-4bc1-b890-ed607e683758/serve/screens-aux.jsx:1661:41:11"/><stop offset="50%" stop-color="#E8E8B8" data-om-id="jsx:/https:/61b94bfd-445d-4bc1-b890-ed607e683758.claudeusercontent.com/v1/design/projects/61b94bfd-445d-4bc1-b890-ed607e683758/serve/screens-aux.jsx:1713:42:11"/><stop offset="100%" stop-color="#5C9050" data-om-id="jsx:/https:/61b94bfd-445d-4bc1-b890-ed607e683758.claudeusercontent.com/v1/design/projects/61b94bfd-445d-4bc1-b890-ed607e683758/serve/screens-aux.jsx:1765:43:11"/></linearGradient></defs><rect x="0" y="0" width="750" height="480" fill="url(#sky-city)" data-om-id="jsx:/https:/61b94bfd-445d-4bc1-b890-ed607e683758.claudeusercontent.com/v1/design/projects/61b94bfd-445d-4bc1-b890-ed607e683758/serve/screens-aux.jsx:1911:48:7"/><circle cx="80" cy="60" r="2" fill="#FFFFFF" data-om-id="jsx:/https:/61b94bfd-445d-4bc1-b890-ed607e683758.claudeusercontent.com/v1/design/projects/61b94bfd-445d-4bc1-b890-ed607e683758/serve/screens-aux.jsx:1984:49:7"/><circle cx="180" cy="30" r="1.5" fill="#FFFFFF" data-om-id="jsx:/https:/61b94bfd-445d-4bc1-b890-ed607e683758.claudeusercontent.com/v1/design/projects/61b94bfd-445d-4bc1-b890-ed607e683758/serve/screens-aux.jsx:2041:50:7"/><circle cx="280" cy="80" r="1.5" fill="#FFFFFF" data-om-id="jsx:/https:/61b94bfd-445d-4bc1-b890-ed607e683758.claudeusercontent.com/v1/design/projects/61b94bfd-445d-4bc1-b890-ed607e683758/serve/screens-aux.jsx:2098:51:7"/><circle cx="550" cy="50" r="2" fill="#FFFFFF" data-om-id="jsx:/https:/61b94bfd-445d-4bc1-b890-ed607e683758.claudeusercontent.com/v1/design/projects/61b94bfd-445d-4bc1-b890-ed607e683758/serve/screens-aux.jsx:2155:52:7"/><circle cx="650" cy="110" r="1.5" fill="#FFFFFF" data-om-id="jsx:/https:/61b94bfd-445d-4bc1-b890-ed607e683758.claudeusercontent.com/v1/design/projects/61b94bfd-445d-4bc1-b890-ed607e683758/serve/screens-aux.jsx:2212:53:7"/><polygon points="0,480 750,480 750,594 0,594" fill="#2A1F2E" data-om-id="jsx:/https:/61b94bfd-445d-4bc1-b890-ed607e683758.claudeusercontent.com/v1/design/projects/61b94bfd-445d-4bc1-b890-ed607e683758/serve/screens-aux.jsx:2269:54:7"/><polygon points="290,290 310,290 310,480 290,480" fill="#1A1410" data-om-id="jsx:/https:/61b94bfd-445d-4bc1-b890-ed607e683758.claudeusercontent.com/v1/design/projects/61b94bfd-445d-4bc1-b890-ed607e683758/serve/screens-aux.jsx:2338:55:7"/><polygon points="285,310 315,310 320,350 280,350" fill="#1A1410" data-om-id="jsx:/https:/61b94bfd-445d-4bc1-b890-ed607e683758.claudeusercontent.com/v1/design/projects/61b94bfd-445d-4bc1-b890-ed607e683758/serve/screens-aux.jsx:2411:56:7"/><polygon points="220,390 380,390 380,594 220,594" fill="#1F1620" data-om-id="jsx:/https:/61b94bfd-445d-4bc1-b890-ed607e683758.claudeusercontent.com/v1/design/projects/61b94bfd-445d-4bc1-b890-ed607e683758/serve/screens-aux.jsx:2484:57:7"/><polygon points="220,390 380,390 300,410" fill="#15101A" data-om-id="jsx:/https:/61b94bfd-445d-4bc1-b890-ed607e683758.claudeusercontent.com/v1/design/projects/61b94bfd-445d-4bc1-b890-ed607e683758/serve/screens-aux.jsx:2557:58:7"/><polygon points="200,410 400,410 410,450 190,450" fill="#1F1620" data-om-id="jsx:/https:/61b94bfd-445d-4bc1-b890-ed607e683758.claudeusercontent.com/v1/design/projects/61b94bfd-445d-4bc1-b890-ed607e683758/serve/screens-aux.jsx:2622:59:7"/><polygon points="60,360 80,320 100,360 100,594 60,594" fill="#1F1620" data-om-id="jsx:/https:/61b94bfd-445d-4bc1-b890-ed607e683758.claudeusercontent.com/v1/design/projects/61b94bfd-445d-4bc1-b890-ed607e683758/serve/screens-aux.jsx:2695:60:7"/><polygon points="70,320 80,300 80,340" fill="#7A2818" data-om-id="jsx:/https:/61b94bfd-445d-4bc1-b890-ed607e683758.claudeusercontent.com/v1/design/projects/61b94bfd-445d-4bc1-b890-ed607e683758/serve/screens-aux.jsx:2773:61:7"/><polygon points="120,420 180,420 180,594 120,594" fill="#15101A" data-om-id="jsx:/https:/61b94bfd-445d-4bc1-b890-ed607e683758.claudeusercontent.com/v1/design/projects/61b94bfd-445d-4bc1-b890-ed607e683758/serve/screens-aux.jsx:2835:62:7"/><polygon points="120,390 150,360 180,390 180,420 120,420" fill="#1F1620" data-om-id="jsx:/https:/61b94bfd-445d-4bc1-b890-ed607e683758.claudeusercontent.com/v1/design/projects/61b94bfd-445d-4bc1-b890-ed607e683758/serve/screens-aux.jsx:2908:63:7"/><polygon points="450,390 470,340 490,390 490,594 450,594" fill="#1F1620" data-om-id="jsx:/https:/61b94bfd-445d-4bc1-b890-ed607e683758.claudeusercontent.com/v1/design/projects/61b94bfd-445d-4bc1-b890-ed607e683758/serve/screens-aux.jsx:2989:64:7"/><polygon points="510,440 580,440 580,594 510,594" fill="#1F1620" data-om-id="jsx:/https:/61b94bfd-445d-4bc1-b890-ed607e683758.claudeusercontent.com/v1/design/projects/61b94bfd-445d-4bc1-b890-ed607e683758/serve/screens-aux.jsx:3070:65:7"/><polygon points="600,400 620,340 640,400 640,594 600,594" fill="#15101A" data-om-id="jsx:/https:/61b94bfd-445d-4bc1-b890-ed607e683758.claudeusercontent.com/v1/design/projects/61b94bfd-445d-4bc1-b890-ed607e683758/serve/screens-aux.jsx:3143:66:7"/><polygon points="660,440 750,440 750,594 660,594" fill="#1F1620" data-om-id="jsx:/https:/61b94bfd-445d-4bc1-b890-ed607e683758.claudeusercontent.com/v1/design/projects/61b94bfd-445d-4bc1-b890-ed607e683758/serve/screens-aux.jsx:3224:67:7"/><polygon points="70,410 84,410 84,428 70,428" fill="#FFC458" data-om-id="jsx:/https:/61b94bfd-445d-4bc1-b890-ed607e683758.claudeusercontent.com/v1/design/projects/61b94bfd-445d-4bc1-b890-ed607e683758/serve/screens-aux.jsx:3297:68:7"/><polygon points="140,460 158,460 158,478 140,478" fill="#FFE070" data-om-id="jsx:/https:/61b94bfd-445d-4bc1-b890-ed607e683758.claudeusercontent.com/v1/design/projects/61b94bfd-445d-4bc1-b890-ed607e683758/serve/screens-aux.jsx:3366:69:7"/><polygon points="290,440 308,440 308,460 290,460" fill="#FFE070" data-om-id="jsx:/https:/61b94bfd-445d-4bc1-b890-ed607e683758.claudeusercontent.com/v1/design/projects/61b94bfd-445d-4bc1-b890-ed607e683758/serve/screens-aux.jsx:3439:70:7"/><polygon points="296,480 310,480 310,500 296,500" fill="#FFC458" data-om-id="jsx:/https:/61b94bfd-445d-4bc1-b890-ed607e683758.claudeusercontent.com/v1/design/projects/61b94bfd-445d-4bc1-b890-ed607e683758/serve/screens-aux.jsx:3512:71:7"/><polygon points="458,420 476,420 476,440 458,440" fill="#FFE070" data-om-id="jsx:/https:/61b94bfd-445d-4bc1-b890-ed607e683758.claudeusercontent.com/v1/design/projects/61b94bfd-445d-4bc1-b890-ed607e683758/serve/screens-aux.jsx:3585:72:7"/><polygon points="528,472 544,472 544,488 528,488" fill="#FFC458" data-om-id="jsx:/https:/61b94bfd-445d-4bc1-b890-ed607e683758.claudeusercontent.com/v1/design/projects/61b94bfd-445d-4bc1-b890-ed607e683758/serve/screens-aux.jsx:3658:73:7"/><polygon points="608,448 624,448 624,466 608,466" fill="#FFE070" data-om-id="jsx:/https:/61b94bfd-445d-4bc1-b890-ed607e683758.claudeusercontent.com/v1/design/projects/61b94bfd-445d-4bc1-b890-ed607e683758/serve/screens-aux.jsx:3731:74:7"/><polygon points="688,472 704,472 704,488 688,488" fill="#FFE070" data-om-id="jsx:/https:/61b94bfd-445d-4bc1-b890-ed607e683758.claudeusercontent.com/v1/design/projects/61b94bfd-445d-4bc1-b890-ed607e683758/serve/screens-aux.jsx:3804:75:7"/><rect x="0" y="594" width="750" height="12" fill="#0E0905" data-om-id="jsx:/https:/61b94bfd-445d-4bc1-b890-ed607e683758.claudeusercontent.com/v1/design/projects/61b94bfd-445d-4bc1-b890-ed607e683758/serve/screens-aux.jsx:3912:78:7"/><rect x="0" y="606" width="750" height="394" fill="url(#sky-outskirts)" data-om-id="jsx:/https:/61b94bfd-445d-4bc1-b890-ed607e683758.claudeusercontent.com/v1/design/projects/61b94bfd-445d-4bc1-b890-ed607e683758/serve/screens-aux.jsx:4041:81:7"/><polygon points="0,890 60,820 130,890" fill="#3A2A4C" opacity="0.7" data-om-id="jsx:/https:/61b94bfd-445d-4bc1-b890-ed607e683758.claudeusercontent.com/v1/design/projects/61b94bfd-445d-4bc1-b890-ed607e683758/serve/screens-aux.jsx:4121:82:7"/><polygon points="130,890 200,810 290,890" fill="#3A2A4C" opacity="0.7" data-om-id="jsx:/https:/61b94bfd-445d-4bc1-b890-ed607e683758.claudeusercontent.com/v1/design/projects/61b94bfd-445d-4bc1-b890-ed607e683758/serve/screens-aux.jsx:4197:83:7"/><polygon points="460,890 540,820 610,890" fill="#3A2A4C" opacity="0.7" data-om-id="jsx:/https:/61b94bfd-445d-4bc1-b890-ed607e683758.claudeusercontent.com/v1/design/projects/61b94bfd-445d-4bc1-b890-ed607e683758/serve/screens-aux.jsx:4276:84:7"/><polygon points="610,890 700,830 750,890" fill="#3A2A4C" opacity="0.7" data-om-id="jsx:/https:/61b94bfd-445d-4bc1-b890-ed607e683758.claudeusercontent.com/v1/design/projects/61b94bfd-445d-4bc1-b890-ed607e683758/serve/screens-aux.jsx:4355:85:7"/><polygon points="0,1000 750,1000 750,1194 0,1194" fill="#7A5A38" data-om-id="jsx:/https:/61b94bfd-445d-4bc1-b890-ed607e683758.claudeusercontent.com/v1/design/projects/61b94bfd-445d-4bc1-b890-ed607e683758/serve/screens-aux.jsx:4434:86:7"/><polygon points="0,1000 750,1000 750,1020 0,1020" fill="#5C3B22" data-om-id="jsx:/https:/61b94bfd-445d-4bc1-b890-ed607e683758.claudeusercontent.com/v1/design/projects/61b94bfd-445d-4bc1-b890-ed607e683758/serve/screens-aux.jsx:4507:87:7"/><polygon points="60,900 220,900 240,1000 40,1000" fill="#B74A3C" data-om-id="jsx:/https:/61b94bfd-445d-4bc1-b890-ed607e683758.claudeusercontent.com/v1/design/projects/61b94bfd-445d-4bc1-b890-ed607e683758/serve/screens-aux.jsx:4580:88:7"/><polygon points="60,900 220,900 140,940" fill="#E27660" data-om-id="jsx:/https:/61b94bfd-445d-4bc1-b890-ed607e683758.claudeusercontent.com/v1/design/projects/61b94bfd-445d-4bc1-b890-ed607e683758/serve/screens-aux.jsx:4653:89:7"/><polygon points="60,900 80,860 200,860 220,900" fill="#B74A3C" data-om-id="jsx:/https:/61b94bfd-445d-4bc1-b890-ed607e683758.claudeusercontent.com/v1/design/projects/61b94bfd-445d-4bc1-b890-ed607e683758/serve/screens-aux.jsx:4717:90:7"/><polygon points="80,860 200,860 140,880" fill="#E27660" data-om-id="jsx:/https:/61b94bfd-445d-4bc1-b890-ed607e683758.claudeusercontent.com/v1/design/projects/61b94bfd-445d-4bc1-b890-ed607e683758/serve/screens-aux.jsx:4788:91:7"/><polygon points="130,820 150,820 140,860" fill="#1A1208" data-om-id="jsx:/https:/61b94bfd-445d-4bc1-b890-ed607e683758.claudeusercontent.com/v1/design/projects/61b94bfd-445d-4bc1-b890-ed607e683758/serve/screens-aux.jsx:4852:92:7"/><polygon points="280,860 470,860 480,1000 270,1000" fill="#7A5A38" data-om-id="jsx:/https:/61b94bfd-445d-4bc1-b890-ed607e683758.claudeusercontent.com/v1/design/projects/61b94bfd-445d-4bc1-b890-ed607e683758/serve/screens-aux.jsx:4917:93:7"/><polygon points="280,860 470,860 375,890" fill="#A8845C" data-om-id="jsx:/https:/61b94bfd-445d-4bc1-b890-ed607e683758.claudeusercontent.com/v1/design/projects/61b94bfd-445d-4bc1-b890-ed607e683758/serve/screens-aux.jsx:4992:94:7"/><polygon points="270,840 480,840 470,860 280,860" fill="#5C3B22" data-om-id="jsx:/https:/61b94bfd-445d-4bc1-b890-ed607e683758.claudeusercontent.com/v1/design/projects/61b94bfd-445d-4bc1-b890-ed607e683758/serve/screens-aux.jsx:5057:95:7"/><polygon points="260,820 490,820 480,840 270,840" fill="#5C3B22" data-om-id="jsx:/https:/61b94bfd-445d-4bc1-b890-ed607e683758.claudeusercontent.com/v1/design/projects/61b94bfd-445d-4bc1-b890-ed607e683758/serve/screens-aux.jsx:5130:96:7"/><polygon points="260,820 490,820 375,830" fill="#7A5A38" data-om-id="jsx:/https:/61b94bfd-445d-4bc1-b890-ed607e683758.claudeusercontent.com/v1/design/projects/61b94bfd-445d-4bc1-b890-ed607e683758/serve/screens-aux.jsx:5203:97:7"/><polygon points="350,920 400,920 400,1000 350,1000" fill="#3F2A1A" data-om-id="jsx:/https:/61b94bfd-445d-4bc1-b890-ed607e683758.claudeusercontent.com/v1/design/projects/61b94bfd-445d-4bc1-b890-ed607e683758/serve/screens-aux.jsx:5268:98:7"/><polygon points="300,900 330,900 330,930 300,930" fill="#1A1208" data-om-id="jsx:/https:/61b94bfd-445d-4bc1-b890-ed607e683758.claudeusercontent.com/v1/design/projects/61b94bfd-445d-4bc1-b890-ed607e683758/serve/screens-aux.jsx:5343:99:7"/><polygon points="306,906 324,906 322,924 308,924" fill="#FFE070" data-om-id="jsx:/https:/61b94bfd-445d-4bc1-b890-ed607e683758.claudeusercontent.com/v1/design/projects/61b94bfd-445d-4bc1-b890-ed607e683758/serve/screens-aux.jsx:5416:100:7"/><polygon points="420,900 450,900 450,930 420,930" fill="#1A1208" data-om-id="jsx:/https:/61b94bfd-445d-4bc1-b890-ed607e683758.claudeusercontent.com/v1/design/projects/61b94bfd-445d-4bc1-b890-ed607e683758/serve/screens-aux.jsx:5489:101:7"/><polygon points="426,906 444,906 442,924 428,924" fill="#FFC458" data-om-id="jsx:/https:/61b94bfd-445d-4bc1-b890-ed607e683758.claudeusercontent.com/v1/design/projects/61b94bfd-445d-4bc1-b890-ed607e683758/serve/screens-aux.jsx:5562:102:7"/><polygon points="500,940 600,940 614,1000 488,1000" fill="#D9A848" data-om-id="jsx:/https:/61b94bfd-445d-4bc1-b890-ed607e683758.claudeusercontent.com/v1/design/projects/61b94bfd-445d-4bc1-b890-ed607e683758/serve/screens-aux.jsx:5635:103:7"/><polygon points="500,940 600,940 550,970" fill="#FFE48A" data-om-id="jsx:/https:/61b94bfd-445d-4bc1-b890-ed607e683758.claudeusercontent.com/v1/design/projects/61b94bfd-445d-4bc1-b890-ed607e683758/serve/screens-aux.jsx:5710:104:7"/><polygon points="500,940 520,910 580,910 600,940" fill="#D9A848" data-om-id="jsx:/https:/61b94bfd-445d-4bc1-b890-ed607e683758.claudeusercontent.com/v1/design/projects/61b94bfd-445d-4bc1-b890-ed607e683758/serve/screens-aux.jsx:5775:105:7"/><polygon points="520,910 580,910 550,925" fill="#FFE48A" data-om-id="jsx:/https:/61b94bfd-445d-4bc1-b890-ed607e683758.claudeusercontent.com/v1/design/projects/61b94bfd-445d-4bc1-b890-ed607e683758/serve/screens-aux.jsx:5848:106:7"/><polygon points="546,880 554,880 550,910" fill="#1A1208" data-om-id="jsx:/https:/61b94bfd-445d-4bc1-b890-ed607e683758.claudeusercontent.com/v1/design/projects/61b94bfd-445d-4bc1-b890-ed607e683758/serve/screens-aux.jsx:5913:107:7"/><polygon points="630,940 720,940 730,1000 622,1000" fill="#5C9050" data-om-id="jsx:/https:/61b94bfd-445d-4bc1-b890-ed607e683758.claudeusercontent.com/v1/design/projects/61b94bfd-445d-4bc1-b890-ed607e683758/serve/screens-aux.jsx:5978:108:7"/><polygon points="630,940 720,940 675,970" fill="#8FBE70" data-om-id="jsx:/https:/61b94bfd-445d-4bc1-b890-ed607e683758.claudeusercontent.com/v1/design/projects/61b94bfd-445d-4bc1-b890-ed607e683758/serve/screens-aux.jsx:6053:109:7"/><polygon points="630,940 650,910 700,910 720,940" fill="#5C9050" data-om-id="jsx:/https:/61b94bfd-445d-4bc1-b890-ed607e683758.claudeusercontent.com/v1/design/projects/61b94bfd-445d-4bc1-b890-ed607e683758/serve/screens-aux.jsx:6118:110:7"/><ellipse cx="180" cy="1070" rx="14" ry="4" fill="#3F2A1A" data-om-id="jsx:/https:/61b94bfd-445d-4bc1-b890-ed607e683758.claudeusercontent.com/v1/design/projects/61b94bfd-445d-4bc1-b890-ed607e683758/serve/screens-aux.jsx:6191:111:7"/><ellipse cx="380" cy="1090" rx="14" ry="4" fill="#3F2A1A" data-om-id="jsx:/https:/61b94bfd-445d-4bc1-b890-ed607e683758.claudeusercontent.com/v1/design/projects/61b94bfd-445d-4bc1-b890-ed607e683758/serve/screens-aux.jsx:6257:112:7"/><ellipse cx="600" cy="1080" rx="14" ry="4" fill="#3F2A1A" data-om-id="jsx:/https:/61b94bfd-445d-4bc1-b890-ed607e683758.claudeusercontent.com/v1/design/projects/61b94bfd-445d-4bc1-b890-ed607e683758/serve/screens-aux.jsx:6323:113:7"/><rect x="0" y="1194" width="750" height="12" fill="#0E0905" data-om-id="jsx:/https:/61b94bfd-445d-4bc1-b890-ed607e683758.claudeusercontent.com/v1/design/projects/61b94bfd-445d-4bc1-b890-ed607e683758/serve/screens-aux.jsx:6424:116:7"/><rect x="0" y="1206" width="750" height="294" fill="url(#sky-village)" data-om-id="jsx:/https:/61b94bfd-445d-4bc1-b890-ed607e683758.claudeusercontent.com/v1/design/projects/61b94bfd-445d-4bc1-b890-ed607e683758/serve/screens-aux.jsx:6552:119:7"/><polygon points="100,1290 200,1280 240,1300 140,1308" fill="#FFFFFF" data-om-id="jsx:/https:/61b94bfd-445d-4bc1-b890-ed607e683758.claudeusercontent.com/v1/design/projects/61b94bfd-445d-4bc1-b890-ed607e683758/serve/screens-aux.jsx:6631:120:7"/><polygon points="100,1290 200,1280 170,1296" fill="#EDE0C0" data-om-id="jsx:/https:/61b94bfd-445d-4bc1-b890-ed607e683758.claudeusercontent.com/v1/design/projects/61b94bfd-445d-4bc1-b890-ed607e683758/serve/screens-aux.jsx:6708:121:7"/><polygon points="500,1330 620,1320 660,1340 540,1348" fill="#FFFFFF" data-om-id="jsx:/https:/61b94bfd-445d-4bc1-b890-ed607e683758.claudeusercontent.com/v1/design/projects/61b94bfd-445d-4bc1-b890-ed607e683758/serve/screens-aux.jsx:6776:122:7"/><polygon points="500,1330 620,1320 580,1336" fill="#EDE0C0" data-om-id="jsx:/https:/61b94bfd-445d-4bc1-b890-ed607e683758.claudeusercontent.com/v1/design/projects/61b94bfd-445d-4bc1-b890-ed607e683758/serve/screens-aux.jsx:6853:123:7"/><polygon points="0,1500 220,1430 440,1500" fill="#7AB066" data-om-id="jsx:/https:/61b94bfd-445d-4bc1-b890-ed607e683758.claudeusercontent.com/v1/design/projects/61b94bfd-445d-4bc1-b890-ed607e683758/serve/screens-aux.jsx:6921:124:7"/><polygon points="440,1500 600,1440 750,1500" fill="#7AB066" data-om-id="jsx:/https:/61b94bfd-445d-4bc1-b890-ed607e683758.claudeusercontent.com/v1/design/projects/61b94bfd-445d-4bc1-b890-ed607e683758/serve/screens-aux.jsx:6987:125:7"/><polygon points="0,1500 750,1500 750,1794 0,1794" fill="#5C9050" data-om-id="jsx:/https:/61b94bfd-445d-4bc1-b890-ed607e683758.claudeusercontent.com/v1/design/projects/61b94bfd-445d-4bc1-b890-ed607e683758/serve/screens-aux.jsx:7055:126:7"/><polygon points="0,1770 750,1770 750,1794 0,1794" fill="#3D6B36" data-om-id="jsx:/https:/61b94bfd-445d-4bc1-b890-ed607e683758.claudeusercontent.com/v1/design/projects/61b94bfd-445d-4bc1-b890-ed607e683758/serve/screens-aux.jsx:7128:127:7"/><polygon points="80,1470 240,1470 240,1620 70,1620" fill="#D8B894" data-om-id="jsx:/https:/61b94bfd-445d-4bc1-b890-ed607e683758.claudeusercontent.com/v1/design/projects/61b94bfd-445d-4bc1-b890-ed607e683758/serve/screens-aux.jsx:7201:128:7"/><polygon points="80,1470 240,1470 160,1480" fill="#E8C8A8" data-om-id="jsx:/https:/61b94bfd-445d-4bc1-b890-ed607e683758.claudeusercontent.com/v1/design/projects/61b94bfd-445d-4bc1-b890-ed607e683758/serve/screens-aux.jsx:7276:129:7"/><polygon points="60,1410 260,1410 240,1470 80,1470" fill="#A8845C" data-om-id="jsx:/https:/61b94bfd-445d-4bc1-b890-ed607e683758.claudeusercontent.com/v1/design/projects/61b94bfd-445d-4bc1-b890-ed607e683758/serve/screens-aux.jsx:7343:130:7"/><polygon points="60,1410 260,1410 160,1430" fill="#C09866" data-om-id="jsx:/https:/61b94bfd-445d-4bc1-b890-ed607e683758.claudeusercontent.com/v1/design/projects/61b94bfd-445d-4bc1-b890-ed607e683758/serve/screens-aux.jsx:7418:131:7"/><polygon points="80,1470 240,1470 160,1460" fill="#5C3B22" data-om-id="jsx:/https:/61b94bfd-445d-4bc1-b890-ed607e683758.claudeusercontent.com/v1/design/projects/61b94bfd-445d-4bc1-b890-ed607e683758/serve/screens-aux.jsx:7485:132:7"/><polygon points="190,1370 220,1370 220,1410 190,1410" fill="#7A5A38" data-om-id="jsx:/https:/61b94bfd-445d-4bc1-b890-ed607e683758.claudeusercontent.com/v1/design/projects/61b94bfd-445d-4bc1-b890-ed607e683758/serve/screens-aux.jsx:7552:133:7"/><polygon points="190,1370 220,1370 205,1380" fill="#A8845C" data-om-id="jsx:/https:/61b94bfd-445d-4bc1-b890-ed607e683758.claudeusercontent.com/v1/design/projects/61b94bfd-445d-4bc1-b890-ed607e683758/serve/screens-aux.jsx:7629:134:7"/><polygon points="192,1330 218,1330 215,1370 195,1370" fill="#C0C0C0" opacity="0.7" data-om-id="jsx:/https:/61b94bfd-445d-4bc1-b890-ed607e683758.claudeusercontent.com/v1/design/projects/61b94bfd-445d-4bc1-b890-ed607e683758/serve/screens-aux.jsx:7697:135:7"/><polygon points="100,1540 144,1540 144,1620 100,1620" fill="#5C3B22" data-om-id="jsx:/https:/61b94bfd-445d-4bc1-b890-ed607e683758.claudeusercontent.com/v1/design/projects/61b94bfd-445d-4bc1-b890-ed607e683758/serve/screens-aux.jsx:7788:136:7"/><polygon points="100,1540 144,1540 122,1548" fill="#7A5A38" data-om-id="jsx:/https:/61b94bfd-445d-4bc1-b890-ed607e683758.claudeusercontent.com/v1/design/projects/61b94bfd-445d-4bc1-b890-ed607e683758/serve/screens-aux.jsx:7865:137:7"/><polygon points="170,1540 210,1540 210,1588 170,1588" fill="#1A1208" data-om-id="jsx:/https:/61b94bfd-445d-4bc1-b890-ed607e683758.claudeusercontent.com/v1/design/projects/61b94bfd-445d-4bc1-b890-ed607e683758/serve/screens-aux.jsx:7933:138:7"/><polygon points="176,1548 204,1548 200,1582 180,1582" fill="#FFC458" data-om-id="jsx:/https:/61b94bfd-445d-4bc1-b890-ed607e683758.claudeusercontent.com/v1/design/projects/61b94bfd-445d-4bc1-b890-ed607e683758/serve/screens-aux.jsx:8010:139:7"/><polygon points="510,1470 690,1470 700,1620 500,1620" fill="#D8B894" data-om-id="jsx:/https:/61b94bfd-445d-4bc1-b890-ed607e683758.claudeusercontent.com/v1/design/projects/61b94bfd-445d-4bc1-b890-ed607e683758/serve/screens-aux.jsx:8087:140:7"/><polygon points="510,1470 690,1470 600,1480" fill="#E8C8A8" data-om-id="jsx:/https:/61b94bfd-445d-4bc1-b890-ed607e683758.claudeusercontent.com/v1/design/projects/61b94bfd-445d-4bc1-b890-ed607e683758/serve/screens-aux.jsx:8164:141:7"/><polygon points="490,1410 710,1410 690,1470 510,1470" fill="#A8845C" data-om-id="jsx:/https:/61b94bfd-445d-4bc1-b890-ed607e683758.claudeusercontent.com/v1/design/projects/61b94bfd-445d-4bc1-b890-ed607e683758/serve/screens-aux.jsx:8232:142:7"/><polygon points="490,1410 710,1410 600,1430" fill="#C09866" data-om-id="jsx:/https:/61b94bfd-445d-4bc1-b890-ed607e683758.claudeusercontent.com/v1/design/projects/61b94bfd-445d-4bc1-b890-ed607e683758/serve/screens-aux.jsx:8309:143:7"/><polygon points="640,1370 670,1370 670,1410 640,1410" fill="#7A5A38" data-om-id="jsx:/https:/61b94bfd-445d-4bc1-b890-ed607e683758.claudeusercontent.com/v1/design/projects/61b94bfd-445d-4bc1-b890-ed607e683758/serve/screens-aux.jsx:8377:144:7"/><polygon points="630,1540 676,1540 676,1620 630,1620" fill="#5C3B22" data-om-id="jsx:/https:/61b94bfd-445d-4bc1-b890-ed607e683758.claudeusercontent.com/v1/design/projects/61b94bfd-445d-4bc1-b890-ed607e683758/serve/screens-aux.jsx:8454:145:7"/><polygon points="510,1540 550,1540 550,1588 510,1588" fill="#1A1208" data-om-id="jsx:/https:/61b94bfd-445d-4bc1-b890-ed607e683758.claudeusercontent.com/v1/design/projects/61b94bfd-445d-4bc1-b890-ed607e683758/serve/screens-aux.jsx:8531:146:7"/><polygon points="516,1548 544,1548 540,1582 520,1582" fill="#FFE070" data-om-id="jsx:/https:/61b94bfd-445d-4bc1-b890-ed607e683758.claudeusercontent.com/v1/design/projects/61b94bfd-445d-4bc1-b890-ed607e683758/serve/screens-aux.jsx:8608:147:7"/><polygon points="350,1550 410,1550 420,1620 340,1620" fill="#6F6557" data-om-id="jsx:/https:/61b94bfd-445d-4bc1-b890-ed607e683758.claudeusercontent.com/v1/design/projects/61b94bfd-445d-4bc1-b890-ed607e683758/serve/screens-aux.jsx:8712:149:7"/><polygon points="350,1550 410,1550 380,1560" fill="#9C8F7C" data-om-id="jsx:/https:/61b94bfd-445d-4bc1-b890-ed607e683758.claudeusercontent.com/v1/design/projects/61b94bfd-445d-4bc1-b890-ed607e683758/serve/screens-aux.jsx:8789:150:7"/><polygon points="368,1530 392,1530 395,1550 365,1550" fill="#4D453A" data-om-id="jsx:/https:/61b94bfd-445d-4bc1-b890-ed607e683758.claudeusercontent.com/v1/design/projects/61b94bfd-445d-4bc1-b890-ed607e683758/serve/screens-aux.jsx:8857:151:7"/><rect x="0" y="1794" width="750" height="12" fill="#0E0905" data-om-id="jsx:/https:/61b94bfd-445d-4bc1-b890-ed607e683758.claudeusercontent.com/v1/design/projects/61b94bfd-445d-4bc1-b890-ed607e683758/serve/screens-aux.jsx:8969:154:7"/><rect x="0" y="1806" width="750" height="294" fill="url(#sky-country)" data-om-id="jsx:/https:/61b94bfd-445d-4bc1-b890-ed607e683758.claudeusercontent.com/v1/design/projects/61b94bfd-445d-4bc1-b890-ed607e683758/serve/screens-aux.jsx:9101:157:7"/><polygon points="120,1900 160,1930 160,1970 120,2000 80,1970 80,1930" fill="#FFE070" data-om-id="jsx:/https:/61b94bfd-445d-4bc1-b890-ed607e683758.claudeusercontent.com/v1/design/projects/61b94bfd-445d-4bc1-b890-ed607e683758/serve/screens-aux.jsx:9198:159:7"/><polygon points="120,1900 160,1930 120,1940" fill="#FFF4C8" data-om-id="jsx:/https:/61b94bfd-445d-4bc1-b890-ed607e683758.claudeusercontent.com/v1/design/projects/61b94bfd-445d-4bc1-b890-ed607e683758/serve/screens-aux.jsx:9291:160:7"/><polygon points="160,1930 160,1970 120,1960" fill="#F0CE6F" data-om-id="jsx:/https:/61b94bfd-445d-4bc1-b890-ed607e683758.claudeusercontent.com/v1/design/projects/61b94bfd-445d-4bc1-b890-ed607e683758/serve/screens-aux.jsx:9359:161:7"/><polygon points="0,2080 100,2050 200,2080 350,2050 500,2080 650,2050 750,2080 750,2120 0,2120" fill="#3D6B36" data-om-id="jsx:/https:/61b94bfd-445d-4bc1-b890-ed607e683758.claudeusercontent.com/v1/design/projects/61b94bfd-445d-4bc1-b890-ed607e683758/serve/screens-aux.jsx:9459:163:7"/><polygon points="0,2100 750,2100 750,2400 0,2400" fill="#5C9050" data-om-id="jsx:/https:/61b94bfd-445d-4bc1-b890-ed607e683758.claudeusercontent.com/v1/design/projects/61b94bfd-445d-4bc1-b890-ed607e683758/serve/screens-aux.jsx:9602:165:7"/><polygon points="0,2240 750,2240 750,2400 0,2400" fill="#3D6B36" data-om-id="jsx:/https:/61b94bfd-445d-4bc1-b890-ed607e683758.claudeusercontent.com/v1/design/projects/61b94bfd-445d-4bc1-b890-ed607e683758/serve/screens-aux.jsx:9675:166:7"/><polygon points="0,2360 750,2360 750,2400 0,2400" fill="#244B1F" data-om-id="jsx:/https:/61b94bfd-445d-4bc1-b890-ed607e683758.claudeusercontent.com/v1/design/projects/61b94bfd-445d-4bc1-b890-ed607e683758/serve/screens-aux.jsx:9748:167:7"/><polygon points="80,2230 50,2150 130,2150 100,2230" fill="#5C9050" data-om-id="jsx:/https:/61b94bfd-445d-4bc1-b890-ed607e683758.claudeusercontent.com/v1/design/projects/61b94bfd-445d-4bc1-b890-ed607e683758/serve/screens-aux.jsx:9841:169:7"/><polygon points="80,2230 50,2150 70,2170" fill="#8FBE70" data-om-id="jsx:/https:/61b94bfd-445d-4bc1-b890-ed607e683758.claudeusercontent.com/v1/design/projects/61b94bfd-445d-4bc1-b890-ed607e683758/serve/screens-aux.jsx:9916:170:7"/><polygon points="100,2230 130,2150 110,2170" fill="#3D6B36" data-om-id="jsx:/https:/61b94bfd-445d-4bc1-b890-ed607e683758.claudeusercontent.com/v1/design/projects/61b94bfd-445d-4bc1-b890-ed607e683758/serve/screens-aux.jsx:9981:171:7"/><polygon points="86,2230 94,2230 96,2290 84,2290" fill="#5C3B22" data-om-id="jsx:/https:/61b94bfd-445d-4bc1-b890-ed607e683758.claudeusercontent.com/v1/design/projects/61b94bfd-445d-4bc1-b890-ed607e683758/serve/screens-aux.jsx:10049:172:7"/><polygon points="640,2260 600,2170 700,2170 660,2260" fill="#5C9050" data-om-id="jsx:/https:/61b94bfd-445d-4bc1-b890-ed607e683758.claudeusercontent.com/v1/design/projects/61b94bfd-445d-4bc1-b890-ed607e683758/serve/screens-aux.jsx:10122:173:7"/><polygon points="640,2260 600,2170 630,2190" fill="#8FBE70" data-om-id="jsx:/https:/61b94bfd-445d-4bc1-b890-ed607e683758.claudeusercontent.com/v1/design/projects/61b94bfd-445d-4bc1-b890-ed607e683758/serve/screens-aux.jsx:10199:174:7"/><polygon points="660,2260 700,2170 670,2190" fill="#3D6B36" data-om-id="jsx:/https:/61b94bfd-445d-4bc1-b890-ed607e683758.claudeusercontent.com/v1/design/projects/61b94bfd-445d-4bc1-b890-ed607e683758/serve/screens-aux.jsx:10267:175:7"/><polygon points="644,2260 656,2260 658,2330 642,2330" fill="#5C3B22" data-om-id="jsx:/https:/61b94bfd-445d-4bc1-b890-ed607e683758.claudeusercontent.com/v1/design/projects/61b94bfd-445d-4bc1-b890-ed607e683758/serve/screens-aux.jsx:10335:176:7"/><polygon points="280,2340 240,2260 320,2260 300,2340" fill="#3D6B36" data-om-id="jsx:/https:/61b94bfd-445d-4bc1-b890-ed607e683758.claudeusercontent.com/v1/design/projects/61b94bfd-445d-4bc1-b890-ed607e683758/serve/screens-aux.jsx:10412:177:7"/><polygon points="280,2340 240,2260 268,2280" fill="#5C9050" data-om-id="jsx:/https:/61b94bfd-445d-4bc1-b890-ed607e683758.claudeusercontent.com/v1/design/projects/61b94bfd-445d-4bc1-b890-ed607e683758/serve/screens-aux.jsx:10489:178:7"/><polygon points="284,2340 296,2340 298,2400 282,2400" fill="#5C3B22" data-om-id="jsx:/https:/61b94bfd-445d-4bc1-b890-ed607e683758.claudeusercontent.com/v1/design/projects/61b94bfd-445d-4bc1-b890-ed607e683758/serve/screens-aux.jsx:10557:179:7"/><polygon points="500,2380 460,2300 540,2300 520,2380" fill="#3D6B36" data-om-id="jsx:/https:/61b94bfd-445d-4bc1-b890-ed607e683758.claudeusercontent.com/v1/design/projects/61b94bfd-445d-4bc1-b890-ed607e683758/serve/screens-aux.jsx:10634:180:7"/><polygon points="500,2380 460,2300 488,2320" fill="#5C9050" data-om-id="jsx:/https:/61b94bfd-445d-4bc1-b890-ed607e683758.claudeusercontent.com/v1/design/projects/61b94bfd-445d-4bc1-b890-ed607e683758/serve/screens-aux.jsx:10711:181:7"/><polygon points="504,2380 516,2380 518,2400 502,2400" fill="#5C3B22" data-om-id="jsx:/https:/61b94bfd-445d-4bc1-b890-ed607e683758.claudeusercontent.com/v1/design/projects/61b94bfd-445d-4bc1-b890-ed607e683758/serve/screens-aux.jsx:10779:182:7"/><polygon points="180,2120 220,2114 200,2136" fill="#8FBE70" data-om-id="jsx:/https:/61b94bfd-445d-4bc1-b890-ed607e683758.claudeusercontent.com/v1/design/projects/61b94bfd-445d-4bc1-b890-ed607e683758/serve/screens-aux.jsx:10882:184:7"/><polygon points="360,2150 400,2144 380,2166" fill="#8FBE70" data-om-id="jsx:/https:/61b94bfd-445d-4bc1-b890-ed607e683758.claudeusercontent.com/v1/design/projects/61b94bfd-445d-4bc1-b890-ed607e683758/serve/screens-aux.jsx:10950:185:7"/><polygon points="540,2130 580,2124 560,2146" fill="#8FBE70" data-om-id="jsx:/https:/61b94bfd-445d-4bc1-b890-ed607e683758.claudeusercontent.com/v1/design/projects/61b94bfd-445d-4bc1-b890-ed607e683758/serve/screens-aux.jsx:11018:186:7"/><polygon points="200,2280 260,2272 230,2300" fill="#8FBE70" data-om-id="jsx:/https:/61b94bfd-445d-4bc1-b890-ed607e683758.claudeusercontent.com/v1/design/projects/61b94bfd-445d-4bc1-b890-ed607e683758/serve/screens-aux.jsx:11086:187:7"/><polygon points="420,2320 480,2312 450,2340" fill="#8FBE70" data-om-id="jsx:/https:/61b94bfd-445d-4bc1-b890-ed607e683758.claudeusercontent.com/v1/design/projects/61b94bfd-445d-4bc1-b890-ed607e683758/serve/screens-aux.jsx:11154:188:7"/><polygon points="372,200 378,200 392,2380 358,2380" fill="#A8845C" opacity="0.5" data-om-id="jsx:/https:/61b94bfd-445d-4bc1-b890-ed607e683758.claudeusercontent.com/v1/design/projects/61b94bfd-445d-4bc1-b890-ed607e683758/serve/screens-aux.jsx:11284:191:7"/><polygon points="375,200 385,200 392,2380 370,2380" fill="#C09866" opacity="0.45" data-om-id="jsx:/https:/61b94bfd-445d-4bc1-b890-ed607e683758.claudeusercontent.com/v1/design/projects/61b94bfd-445d-4bc1-b890-ed607e683758/serve/screens-aux.jsx:11373:192:7"/></svg>