<?xml version="1.0" encoding="UTF-8"?>
<svg viewBox="0 0 200 240" width="140" height="168" data-asset="naive" data-asset-name="순진이" data-om-id="jsx:/https:/61b94bfd-445d-4bc1-b890-ed607e683758.claudeusercontent.com/v1/design/projects/61b94bfd-445d-4bc1-b890-ed607e683758/serve/characters.jsx:306:7:5" xmlns="http://www.w3.org/2000/svg" xmlns:xlink="http://www.w3.org/1999/xlink"><polygon points="60,72 100,40 140,72 100,84" fill="#F0CE6F" data-om-id="jsx:/https:/61b94bfd-445d-4bc1-b890-ed607e683758.claudeusercontent.com/v1/design/projects/61b94bfd-445d-4bc1-b890-ed607e683758/serve/characters.jsx:7728:195:7"/><polygon points="100,40 140,72 122,68" fill="#FFE070" data-om-id="jsx:/https:/61b94bfd-445d-4bc1-b890-ed607e683758.claudeusercontent.com/v1/design/projects/61b94bfd-445d-4bc1-b890-ed607e683758/serve/characters.jsx:7800:196:7"/><polygon points="100,40 60,72 78,68" fill="#C49838" data-om-id="jsx:/https:/61b94bfd-445d-4bc1-b890-ed607e683758.claudeusercontent.com/v1/design/projects/61b94bfd-445d-4bc1-b890-ed607e683758/serve/characters.jsx:7863:197:7"/><polygon points="20,76 180,76 162,90 38,90" fill="#C49838" data-om-id="jsx:/https:/61b94bfd-445d-4bc1-b890-ed607e683758.claudeusercontent.com/v1/design/projects/61b94bfd-445d-4bc1-b890-ed607e683758/serve/characters.jsx:7927:198:7"/><polygon points="20,76 180,76 100,82" fill="#F0CE6F" data-om-id="jsx:/https:/61b94bfd-445d-4bc1-b890-ed607e683758.claudeusercontent.com/v1/design/projects/61b94bfd-445d-4bc1-b890-ed607e683758/serve/characters.jsx:7998:199:7"/><polygon points="20,76 38,90 28,92 18,82" fill="#7A5418" data-om-id="jsx:/https:/61b94bfd-445d-4bc1-b890-ed607e683758.claudeusercontent.com/v1/design/projects/61b94bfd-445d-4bc1-b890-ed607e683758/serve/characters.jsx:8063:200:7"/><polygon points="180,76 162,90 172,92 182,82" fill="#7A5418" data-om-id="jsx:/https:/61b94bfd-445d-4bc1-b890-ed607e683758.claudeusercontent.com/v1/design/projects/61b94bfd-445d-4bc1-b890-ed607e683758/serve/characters.jsx:8132:201:7"/><polygon points="80,76 88,76 84,82" fill="#7A5418" data-om-id="jsx:/https:/61b94bfd-445d-4bc1-b890-ed607e683758.claudeusercontent.com/v1/design/projects/61b94bfd-445d-4bc1-b890-ed607e683758/serve/characters.jsx:8237:203:7"/><polygon points="110,76 118,76 114,82" fill="#7A5418" data-om-id="jsx:/https:/61b94bfd-445d-4bc1-b890-ed607e683758.claudeusercontent.com/v1/design/projects/61b94bfd-445d-4bc1-b890-ed607e683758/serve/characters.jsx:8300:204:7"/><polygon points="68,90 100,88 100,158 78,160" fill="#E2B894" data-om-id="jsx:/https:/61b94bfd-445d-4bc1-b890-ed607e683758.claudeusercontent.com/v1/design/projects/61b94bfd-445d-4bc1-b890-ed607e683758/serve/characters.jsx:8385:206:7"/><polygon points="100,88 132,90 122,160 100,158" fill="#F8DCBA" data-om-id="jsx:/https:/61b94bfd-445d-4bc1-b890-ed607e683758.claudeusercontent.com/v1/design/projects/61b94bfd-445d-4bc1-b890-ed607e683758/serve/characters.jsx:8457:207:7"/><polygon points="78,160 122,160 100,174" fill="#B88560" data-om-id="jsx:/https:/61b94bfd-445d-4bc1-b890-ed607e683758.claudeusercontent.com/v1/design/projects/61b94bfd-445d-4bc1-b890-ed607e683758/serve/characters.jsx:8531:208:7"/><path d="M 80 122 Q 88 116 96 122" stroke="#1F160C" stroke-width="3" fill="none" data-om-id="jsx:/https:/61b94bfd-445d-4bc1-b890-ed607e683758.claudeusercontent.com/v1/design/projects/61b94bfd-445d-4bc1-b890-ed607e683758/serve/characters.jsx:8642:210:7"/><path d="M 104 122 Q 112 116 120 122" stroke="#1F160C" stroke-width="3" fill="none" data-om-id="jsx:/https:/61b94bfd-445d-4bc1-b890-ed607e683758.claudeusercontent.com/v1/design/projects/61b94bfd-445d-4bc1-b890-ed607e683758/serve/characters.jsx:8730:211:7"/><ellipse cx="80" cy="140" rx="6" ry="4" fill="#F4A8A0" data-om-id="jsx:/https:/61b94bfd-445d-4bc1-b890-ed607e683758.claudeusercontent.com/v1/design/projects/61b94bfd-445d-4bc1-b890-ed607e683758/serve/characters.jsx:8847:213:7"/><ellipse cx="120" cy="140" rx="6" ry="4" fill="#F4A8A0" data-om-id="jsx:/https:/61b94bfd-445d-4bc1-b890-ed607e683758.claudeusercontent.com/v1/design/projects/61b94bfd-445d-4bc1-b890-ed607e683758/serve/characters.jsx:8911:214:7"/><polygon points="86,148 114,148 100,162" fill="#B74A3C" data-om-id="jsx:/https:/61b94bfd-445d-4bc1-b890-ed607e683758.claudeusercontent.com/v1/design/projects/61b94bfd-445d-4bc1-b890-ed607e683758/serve/characters.jsx:9000:216:7"/><polygon points="86,148 100,162 100,154" fill="#7A2818" data-om-id="jsx:/https:/61b94bfd-445d-4bc1-b890-ed607e683758.claudeusercontent.com/v1/design/projects/61b94bfd-445d-4bc1-b890-ed607e683758/serve/characters.jsx:9066:217:7"/><polygon points="114,148 100,162 100,154" fill="#B74A3C" data-om-id="jsx:/https:/61b94bfd-445d-4bc1-b890-ed607e683758.claudeusercontent.com/v1/design/projects/61b94bfd-445d-4bc1-b890-ed607e683758/serve/characters.jsx:9132:218:7"/><polygon points="86,174 114,174 110,188 90,188" fill="#B88560" data-om-id="jsx:/https:/61b94bfd-445d-4bc1-b890-ed607e683758.claudeusercontent.com/v1/design/projects/61b94bfd-445d-4bc1-b890-ed607e683758/serve/characters.jsx:9218:220:7"/><polygon points="0,188 90,188 80,240 0,240" fill="#D8C29C" data-om-id="jsx:/https:/61b94bfd-445d-4bc1-b890-ed607e683758.claudeusercontent.com/v1/design/projects/61b94bfd-445d-4bc1-b890-ed607e683758/serve/characters.jsx:9318:222:7"/><polygon points="200,188 110,188 120,240 200,240" fill="#B89868" data-om-id="jsx:/https:/61b94bfd-445d-4bc1-b890-ed607e683758.claudeusercontent.com/v1/design/projects/61b94bfd-445d-4bc1-b890-ed607e683758/serve/characters.jsx:9386:223:7"/><polygon points="80,240 90,188 110,188 120,240" fill="#E8D8B0" data-om-id="jsx:/https:/61b94bfd-445d-4bc1-b890-ed607e683758.claudeusercontent.com/v1/design/projects/61b94bfd-445d-4bc1-b890-ed607e683758/serve/characters.jsx:9460:224:7"/><polygon points="138,196 142,196 140,232" fill="#B88838" data-om-id="jsx:/https:/61b94bfd-445d-4bc1-b890-ed607e683758.claudeusercontent.com/v1/design/projects/61b94bfd-445d-4bc1-b890-ed607e683758/serve/characters.jsx:9558:226:7"/><polygon points="134,200 142,196 138,206" fill="#F0CE6F" data-om-id="jsx:/https:/61b94bfd-445d-4bc1-b890-ed607e683758.claudeusercontent.com/v1/design/projects/61b94bfd-445d-4bc1-b890-ed607e683758/serve/characters.jsx:9624:227:7"/><polygon points="142,210 150,206 144,216" fill="#F0CE6F" data-om-id="jsx:/https:/61b94bfd-445d-4bc1-b890-ed607e683758.claudeusercontent.com/v1/design/projects/61b94bfd-445d-4bc1-b890-ed607e683758/serve/characters.jsx:9693:228:7"/><polygon points="134,220 142,216 138,226" fill="#C49838" data-om-id="jsx:/https:/61b94bfd-445d-4bc1-b890-ed607e683758.claudeusercontent.com/v1/design/projects/61b94bfd-445d-4bc1-b890-ed607e683758/serve/characters.jsx:9762:229:7"/></svg>