<?xml version="1.0" encoding="UTF-8"?>
<svg viewBox="0 0 750 520" width="100%" height="260" preserveAspectRatio="xMidYMid slice" data-asset="title-scene" data-asset-name="Title Scene — Sunset City" data-om-id="jsx:/https:/61b94bfd-445d-4bc1-b890-ed607e683758.claudeusercontent.com/v1/design/projects/61b94bfd-445d-4bc1-b890-ed607e683758/serve/screens-core.jsx:4052:111:5" style="display: block;" xmlns="http://www.w3.org/2000/svg" xmlns:xlink="http://www.w3.org/1999/xlink"><defs data-om-id="jsx:/https:/61b94bfd-445d-4bc1-b890-ed607e683758.claudeusercontent.com/v1/design/projects/61b94bfd-445d-4bc1-b890-ed607e683758/serve/screens-core.jsx:4294:120:7"><linearGradient id="ts-sky" x1="0" y1="0" x2="0" y2="1" data-om-id="jsx:/https:/61b94bfd-445d-4bc1-b890-ed607e683758.claudeusercontent.com/v1/design/projects/61b94bfd-445d-4bc1-b890-ed607e683758/serve/screens-core.jsx:4309:121:9"><stop offset="0%" stop-color="#1F1A3A" data-om-id="jsx:/https:/61b94bfd-445d-4bc1-b890-ed607e683758.claudeusercontent.com/v1/design/projects/61b94bfd-445d-4bc1-b890-ed607e683758/serve/screens-core.jsx:4376:122:11"/><stop offset="25%" stop-color="#503660" data-om-id="jsx:/https:/61b94bfd-445d-4bc1-b890-ed607e683758.claudeusercontent.com/v1/design/projects/61b94bfd-445d-4bc1-b890-ed607e683758/serve/screens-core.jsx:4426:123:11"/><stop offset="55%" stop-color="#A55060" data-om-id="jsx:/https:/61b94bfd-445d-4bc1-b890-ed607e683758.claudeusercontent.com/v1/design/projects/61b94bfd-445d-4bc1-b890-ed607e683758/serve/screens-core.jsx:4477:124:11"/><stop offset="80%" stop-color="#E89060" data-om-id="jsx:/https:/61b94bfd-445d-4bc1-b890-ed607e683758.claudeusercontent.com/v1/design/projects/61b94bfd-445d-4bc1-b890-ed607e683758/serve/screens-core.jsx:4528:125:11"/><stop offset="100%" stop-color="#F8C870" data-om-id="jsx:/https:/61b94bfd-445d-4bc1-b890-ed607e683758.claudeusercontent.com/v1/design/projects/61b94bfd-445d-4bc1-b890-ed607e683758/serve/screens-core.jsx:4579:126:11"/></linearGradient></defs><rect x="0" y="0" width="750" height="380" fill="url(#ts-sky)" data-om-id="jsx:/https:/61b94bfd-445d-4bc1-b890-ed607e683758.claudeusercontent.com/v1/design/projects/61b94bfd-445d-4bc1-b890-ed607e683758/serve/screens-core.jsx:4685:130:7"/><circle cx="80" cy="40" r="2" fill="#FFFFFF" data-om-id="jsx:/https:/61b94bfd-445d-4bc1-b890-ed607e683758.claudeusercontent.com/v1/design/projects/61b94bfd-445d-4bc1-b890-ed607e683758/serve/screens-core.jsx:4776:132:7"/><circle cx="180" cy="60" r="1.5" fill="#FFFFFF" data-om-id="jsx:/https:/61b94bfd-445d-4bc1-b890-ed607e683758.claudeusercontent.com/v1/design/projects/61b94bfd-445d-4bc1-b890-ed607e683758/serve/screens-core.jsx:4831:133:7"/><circle cx="260" cy="30" r="1.5" fill="#FFFFFF" data-om-id="jsx:/https:/61b94bfd-445d-4bc1-b890-ed607e683758.claudeusercontent.com/v1/design/projects/61b94bfd-445d-4bc1-b890-ed607e683758/serve/screens-core.jsx:4888:134:7"/><circle cx="540" cy="48" r="2" fill="#FFFFFF" data-om-id="jsx:/https:/61b94bfd-445d-4bc1-b890-ed607e683758.claudeusercontent.com/v1/design/projects/61b94bfd-445d-4bc1-b890-ed607e683758/serve/screens-core.jsx:4945:135:7"/><circle cx="640" cy="80" r="1.5" fill="#FFFFFF" data-om-id="jsx:/https:/61b94bfd-445d-4bc1-b890-ed607e683758.claudeusercontent.com/v1/design/projects/61b94bfd-445d-4bc1-b890-ed607e683758/serve/screens-core.jsx:5000:136:7"/><circle cx="700" cy="36" r="1.5" fill="#FFFFFF" data-om-id="jsx:/https:/61b94bfd-445d-4bc1-b890-ed607e683758.claudeusercontent.com/v1/design/projects/61b94bfd-445d-4bc1-b890-ed607e683758/serve/screens-core.jsx:5057:137:7"/><polygon points="375,220 420,260 420,300 375,340 330,300 330,260" fill="#FFE070" data-om-id="jsx:/https:/61b94bfd-445d-4bc1-b890-ed607e683758.claudeusercontent.com/v1/design/projects/61b94bfd-445d-4bc1-b890-ed607e683758/serve/screens-core.jsx:5147:139:7"/><polygon points="375,220 420,260 375,260" fill="#FFF4C8" data-om-id="jsx:/https:/61b94bfd-445d-4bc1-b890-ed607e683758.claudeusercontent.com/v1/design/projects/61b94bfd-445d-4bc1-b890-ed607e683758/serve/screens-core.jsx:5236:140:7"/><polygon points="420,260 420,300 375,300" fill="#F0CE6F" data-om-id="jsx:/https:/61b94bfd-445d-4bc1-b890-ed607e683758.claudeusercontent.com/v1/design/projects/61b94bfd-445d-4bc1-b890-ed607e683758/serve/screens-core.jsx:5301:141:7"/><polygon points="420,300 375,340 375,300" fill="#D9A848" data-om-id="jsx:/https:/61b94bfd-445d-4bc1-b890-ed607e683758.claudeusercontent.com/v1/design/projects/61b94bfd-445d-4bc1-b890-ed607e683758/serve/screens-core.jsx:5366:142:7"/><polygon points="330,300 375,340 375,300" fill="#C8A04A" data-om-id="jsx:/https:/61b94bfd-445d-4bc1-b890-ed607e683758.claudeusercontent.com/v1/design/projects/61b94bfd-445d-4bc1-b890-ed607e683758/serve/screens-core.jsx:5431:143:7"/><polygon points="330,260 330,300 375,300" fill="#F0CE6F" data-om-id="jsx:/https:/61b94bfd-445d-4bc1-b890-ed607e683758.claudeusercontent.com/v1/design/projects/61b94bfd-445d-4bc1-b890-ed607e683758/serve/screens-core.jsx:5496:144:7"/><polygon points="330,260 375,220 375,260" fill="#FFE070" data-om-id="jsx:/https:/61b94bfd-445d-4bc1-b890-ed607e683758.claudeusercontent.com/v1/design/projects/61b94bfd-445d-4bc1-b890-ed607e683758/serve/screens-core.jsx:5561:145:7"/><polygon points="80,272  330,260 330,290 100,288" fill="#FFC458" opacity="0.35" data-om-id="jsx:/https:/61b94bfd-445d-4bc1-b890-ed607e683758.claudeusercontent.com/v1/design/projects/61b94bfd-445d-4bc1-b890-ed607e683758/serve/screens-core.jsx:5668:147:7"/><polygon points="420,260 670,272 650,288 420,290" fill="#FFC458" opacity="0.35" data-om-id="jsx:/https:/61b94bfd-445d-4bc1-b890-ed607e683758.claudeusercontent.com/v1/design/projects/61b94bfd-445d-4bc1-b890-ed607e683758/serve/screens-core.jsx:5756:148:7"/><polygon points="0,360 90,300 180,360" fill="#5C4068" data-om-id="jsx:/https:/61b94bfd-445d-4bc1-b890-ed607e683758.claudeusercontent.com/v1/design/projects/61b94bfd-445d-4bc1-b890-ed607e683758/serve/screens-core.jsx:5886:150:7"/><polygon points="0,360 90,300 90,360" fill="#3F2A4C" data-om-id="jsx:/https:/61b94bfd-445d-4bc1-b890-ed607e683758.claudeusercontent.com/v1/design/projects/61b94bfd-445d-4bc1-b890-ed607e683758/serve/screens-core.jsx:5948:151:7"/><polygon points="120,360 220,290 320,360" fill="#5C4068" data-om-id="jsx:/https:/61b94bfd-445d-4bc1-b890-ed607e683758.claudeusercontent.com/v1/design/projects/61b94bfd-445d-4bc1-b890-ed607e683758/serve/screens-core.jsx:6009:152:7"/><polygon points="120,360 220,290 220,360" fill="#3F2A4C" data-om-id="jsx:/https:/61b94bfd-445d-4bc1-b890-ed607e683758.claudeusercontent.com/v1/design/projects/61b94bfd-445d-4bc1-b890-ed607e683758/serve/screens-core.jsx:6074:153:7"/><polygon points="430,360 540,280 640,360" fill="#5C4068" data-om-id="jsx:/https:/61b94bfd-445d-4bc1-b890-ed607e683758.claudeusercontent.com/v1/design/projects/61b94bfd-445d-4bc1-b890-ed607e683758/serve/screens-core.jsx:6139:154:7"/><polygon points="430,360 540,280 540,360" fill="#3F2A4C" data-om-id="jsx:/https:/61b94bfd-445d-4bc1-b890-ed607e683758.claudeusercontent.com/v1/design/projects/61b94bfd-445d-4bc1-b890-ed607e683758/serve/screens-core.jsx:6204:155:7"/><polygon points="600,360 700,310 750,360 750,360" fill="#5C4068" data-om-id="jsx:/https:/61b94bfd-445d-4bc1-b890-ed607e683758.claudeusercontent.com/v1/design/projects/61b94bfd-445d-4bc1-b890-ed607e683758/serve/screens-core.jsx:6269:156:7"/><polygon points="600,360 700,310 700,360" fill="#3F2A4C" data-om-id="jsx:/https:/61b94bfd-445d-4bc1-b890-ed607e683758.claudeusercontent.com/v1/design/projects/61b94bfd-445d-4bc1-b890-ed607e683758/serve/screens-core.jsx:6342:157:7"/><polygon points="0,380 70,330 160,380" fill="#2A1F2E" data-om-id="jsx:/https:/61b94bfd-445d-4bc1-b890-ed607e683758.claudeusercontent.com/v1/design/projects/61b94bfd-445d-4bc1-b890-ed607e683758/serve/screens-core.jsx:6455:159:7"/><polygon points="160,380 250,320 340,380" fill="#2A1F2E" data-om-id="jsx:/https:/61b94bfd-445d-4bc1-b890-ed607e683758.claudeusercontent.com/v1/design/projects/61b94bfd-445d-4bc1-b890-ed607e683758/serve/screens-core.jsx:6517:160:7"/><polygon points="410,380 500,330 590,380" fill="#2A1F2E" data-om-id="jsx:/https:/61b94bfd-445d-4bc1-b890-ed607e683758.claudeusercontent.com/v1/design/projects/61b94bfd-445d-4bc1-b890-ed607e683758/serve/screens-core.jsx:6582:161:7"/><polygon points="580,380 670,310 750,380 750,380" fill="#2A1F2E" data-om-id="jsx:/https:/61b94bfd-445d-4bc1-b890-ed607e683758.claudeusercontent.com/v1/design/projects/61b94bfd-445d-4bc1-b890-ed607e683758/serve/screens-core.jsx:6647:162:7"/><polygon points="0,380 750,380 750,400 0,400" fill="#1F1620" data-om-id="jsx:/https:/61b94bfd-445d-4bc1-b890-ed607e683758.claudeusercontent.com/v1/design/projects/61b94bfd-445d-4bc1-b890-ed607e683758/serve/screens-core.jsx:6755:164:7"/><polygon points="370,170 380,170 380,260 370,260" fill="#1A1410" data-om-id="jsx:/https:/61b94bfd-445d-4bc1-b890-ed607e683758.claudeusercontent.com/v1/design/projects/61b94bfd-445d-4bc1-b890-ed607e683758/serve/screens-core.jsx:6882:166:7"/> <polygon points="365,260 385,260 388,290 362,290" fill="#1A1410" data-om-id="jsx:/https:/61b94bfd-445d-4bc1-b890-ed607e683758.claudeusercontent.com/v1/design/projects/61b94bfd-445d-4bc1-b890-ed607e683758/serve/screens-core.jsx:6969:167:7"/><polygon points="340,290 410,290 410,400 340,400" fill="#1F1620" data-om-id="jsx:/https:/61b94bfd-445d-4bc1-b890-ed607e683758.claudeusercontent.com/v1/design/projects/61b94bfd-445d-4bc1-b890-ed607e683758/serve/screens-core.jsx:7042:168:7"/><polygon points="340,290 410,290 375,300" fill="#15101A" data-om-id="jsx:/https:/61b94bfd-445d-4bc1-b890-ed607e683758.claudeusercontent.com/v1/design/projects/61b94bfd-445d-4bc1-b890-ed607e683758/serve/screens-core.jsx:7115:169:7"/><polygon points="335,300 415,300 420,330 330,330" fill="#0E0A14" data-om-id="jsx:/https:/61b94bfd-445d-4bc1-b890-ed607e683758.claudeusercontent.com/v1/design/projects/61b94bfd-445d-4bc1-b890-ed607e683758/serve/screens-core.jsx:7180:170:7"/><polygon points="295,330 335,330 330,400 295,400" fill="#1F1620" data-om-id="jsx:/https:/61b94bfd-445d-4bc1-b890-ed607e683758.claudeusercontent.com/v1/design/projects/61b94bfd-445d-4bc1-b890-ed607e683758/serve/screens-core.jsx:7279:172:7"/><polygon points="415,330 455,330 455,400 420,400" fill="#1F1620" data-om-id="jsx:/https:/61b94bfd-445d-4bc1-b890-ed607e683758.claudeusercontent.com/v1/design/projects/61b94bfd-445d-4bc1-b890-ed607e683758/serve/screens-core.jsx:7352:173:7"/><polygon points="40,310 60,260 80,310 80,400 40,400" fill="#1F1620" data-om-id="jsx:/https:/61b94bfd-445d-4bc1-b890-ed607e683758.claudeusercontent.com/v1/design/projects/61b94bfd-445d-4bc1-b890-ed607e683758/serve/screens-core.jsx:7466:175:7"/><polygon points="50,260 60,250 60,280" fill="#7A2818" data-om-id="jsx:/https:/61b94bfd-445d-4bc1-b890-ed607e683758.claudeusercontent.com/v1/design/projects/61b94bfd-445d-4bc1-b890-ed607e683758/serve/screens-core.jsx:7542:176:7"/> <polygon points="62,260 64,260 64,310 62,310" fill="#1A1410" data-om-id="jsx:/https:/61b94bfd-445d-4bc1-b890-ed607e683758.claudeusercontent.com/v1/design/projects/61b94bfd-445d-4bc1-b890-ed607e683758/serve/screens-core.jsx:7617:177:7"/><polygon points="90,330 130,330 130,400 90,400" fill="#15101A" data-om-id="jsx:/https:/61b94bfd-445d-4bc1-b890-ed607e683758.claudeusercontent.com/v1/design/projects/61b94bfd-445d-4bc1-b890-ed607e683758/serve/screens-core.jsx:7686:178:7"/><polygon points="100,310 120,290 140,310 140,330 100,330" fill="#1F1620" data-om-id="jsx:/https:/61b94bfd-445d-4bc1-b890-ed607e683758.claudeusercontent.com/v1/design/projects/61b94bfd-445d-4bc1-b890-ed607e683758/serve/screens-core.jsx:7757:179:7"/><polygon points="490,290 510,260 530,290 530,400 490,400" fill="#1F1620" data-om-id="jsx:/https:/61b94bfd-445d-4bc1-b890-ed607e683758.claudeusercontent.com/v1/design/projects/61b94bfd-445d-4bc1-b890-ed607e683758/serve/screens-core.jsx:7880:181:7"/><polygon points="540,330 590,330 590,400 540,400" fill="#1F1620" data-om-id="jsx:/https:/61b94bfd-445d-4bc1-b890-ed607e683758.claudeusercontent.com/v1/design/projects/61b94bfd-445d-4bc1-b890-ed607e683758/serve/screens-core.jsx:7961:182:7"/><polygon points="600,300 620,260 640,300 640,400 600,400" fill="#15101A" data-om-id="jsx:/https:/61b94bfd-445d-4bc1-b890-ed607e683758.claudeusercontent.com/v1/design/projects/61b94bfd-445d-4bc1-b890-ed607e683758/serve/screens-core.jsx:8034:183:7"/><polygon points="650,330 740,330 740,400 650,400" fill="#1F1620" data-om-id="jsx:/https:/61b94bfd-445d-4bc1-b890-ed607e683758.claudeusercontent.com/v1/design/projects/61b94bfd-445d-4bc1-b890-ed607e683758/serve/screens-core.jsx:8115:184:7"/><polygon points="660,310 680,290 710,310 710,330 660,330" fill="#1F1620" data-om-id="jsx:/https:/61b94bfd-445d-4bc1-b890-ed607e683758.claudeusercontent.com/v1/design/projects/61b94bfd-445d-4bc1-b890-ed607e683758/serve/screens-core.jsx:8188:185:7"/><polygon points="50,330 60,330 60,344 50,344" fill="#FFC458" data-om-id="jsx:/https:/61b94bfd-445d-4bc1-b890-ed607e683758.claudeusercontent.com/v1/design/projects/61b94bfd-445d-4bc1-b890-ed607e683758/serve/screens-core.jsx:8310:187:7"/><polygon points="102,348 116,348 116,360 102,360" fill="#FFE070" data-om-id="jsx:/https:/61b94bfd-445d-4bc1-b890-ed607e683758.claudeusercontent.com/v1/design/projects/61b94bfd-445d-4bc1-b890-ed607e683758/serve/screens-core.jsx:8379:188:7"/><polygon points="362,330 378,330 378,350 362,350" fill="#FFE070" data-om-id="jsx:/https:/61b94bfd-445d-4bc1-b890-ed607e683758.claudeusercontent.com/v1/design/projects/61b94bfd-445d-4bc1-b890-ed607e683758/serve/screens-core.jsx:8452:189:7"/><polygon points="372,360 384,360 384,378 372,378" fill="#FFC458" data-om-id="jsx:/https:/61b94bfd-445d-4bc1-b890-ed607e683758.claudeusercontent.com/v1/design/projects/61b94bfd-445d-4bc1-b890-ed607e683758/serve/screens-core.jsx:8525:190:7"/><polygon points="496,322 512,322 512,338 496,338" fill="#FFE070" data-om-id="jsx:/https:/61b94bfd-445d-4bc1-b890-ed607e683758.claudeusercontent.com/v1/design/projects/61b94bfd-445d-4bc1-b890-ed607e683758/serve/screens-core.jsx:8598:191:7"/><polygon points="554,346 568,346 568,360 554,360" fill="#FFC458" data-om-id="jsx:/https:/61b94bfd-445d-4bc1-b890-ed607e683758.claudeusercontent.com/v1/design/projects/61b94bfd-445d-4bc1-b890-ed607e683758/serve/screens-core.jsx:8671:192:7"/><polygon points="614,332 628,332 628,348 614,348" fill="#FFE070" data-om-id="jsx:/https:/61b94bfd-445d-4bc1-b890-ed607e683758.claudeusercontent.com/v1/design/projects/61b94bfd-445d-4bc1-b890-ed607e683758/serve/screens-core.jsx:8744:193:7"/><polygon points="676,346 692,346 692,360 676,360" fill="#FFE070" data-om-id="jsx:/https:/61b94bfd-445d-4bc1-b890-ed607e683758.claudeusercontent.com/v1/design/projects/61b94bfd-445d-4bc1-b890-ed607e683758/serve/screens-core.jsx:8817:194:7"/><polygon points="0,400 750,400 750,520 0,520" fill="#2A1F12" data-om-id="jsx:/https:/61b94bfd-445d-4bc1-b890-ed607e683758.claudeusercontent.com/v1/design/projects/61b94bfd-445d-4bc1-b890-ed607e683758/serve/screens-core.jsx:8952:197:7"/><polygon points="280,400 470,400 600,520 150,520" fill="#5C3B22" data-om-id="jsx:/https:/61b94bfd-445d-4bc1-b890-ed607e683758.claudeusercontent.com/v1/design/projects/61b94bfd-445d-4bc1-b890-ed607e683758/serve/screens-core.jsx:9051:199:7"/><polygon points="310,400 440,400 540,520 210,520" fill="#7A5A38" data-om-id="jsx:/https:/61b94bfd-445d-4bc1-b890-ed607e683758.claudeusercontent.com/v1/design/projects/61b94bfd-445d-4bc1-b890-ed607e683758/serve/screens-core.jsx:9124:200:7"/><polygon points="340,400 410,400 480,520 270,520" fill="#A8845C" data-om-id="jsx:/https:/61b94bfd-445d-4bc1-b890-ed607e683758.claudeusercontent.com/v1/design/projects/61b94bfd-445d-4bc1-b890-ed607e683758/serve/screens-core.jsx:9197:201:7"/><polygon points="360,400 390,400 410,520 340,520" fill="#C09866" data-om-id="jsx:/https:/61b94bfd-445d-4bc1-b890-ed607e683758.claudeusercontent.com/v1/design/projects/61b94bfd-445d-4bc1-b890-ed607e683758/serve/screens-core.jsx:9270:202:7"/><polygon points="290,430 460,430 470,440 280,440" fill="#3F2A1A" data-om-id="jsx:/https:/61b94bfd-445d-4bc1-b890-ed607e683758.claudeusercontent.com/v1/design/projects/61b94bfd-445d-4bc1-b890-ed607e683758/serve/screens-core.jsx:9386:204:7"/><polygon points="260,470 490,470 510,480 240,480" fill="#3F2A1A" data-om-id="jsx:/https:/61b94bfd-445d-4bc1-b890-ed607e683758.claudeusercontent.com/v1/design/projects/61b94bfd-445d-4bc1-b890-ed607e683758/serve/screens-core.jsx:9459:205:7"/><polygon points="220,510 530,510 540,520 210,520" fill="#3F2A1A" data-om-id="jsx:/https:/61b94bfd-445d-4bc1-b890-ed607e683758.claudeusercontent.com/v1/design/projects/61b94bfd-445d-4bc1-b890-ed607e683758/serve/screens-core.jsx:9532:206:7"/><polygon points="30,420 80,410 60,430" fill="#3D6B36" data-om-id="jsx:/https:/61b94bfd-445d-4bc1-b890-ed607e683758.claudeusercontent.com/v1/design/projects/61b94bfd-445d-4bc1-b890-ed607e683758/serve/screens-core.jsx:9640:208:7"/><polygon points="180,440 240,432 200,450" fill="#5C9050" data-om-id="jsx:/https:/61b94bfd-445d-4bc1-b890-ed607e683758.claudeusercontent.com/v1/design/projects/61b94bfd-445d-4bc1-b890-ed607e683758/serve/screens-core.jsx:9702:209:7"/><polygon points="540,440 600,432 560,450" fill="#3D6B36" data-om-id="jsx:/https:/61b94bfd-445d-4bc1-b890-ed607e683758.claudeusercontent.com/v1/design/projects/61b94bfd-445d-4bc1-b890-ed607e683758/serve/screens-core.jsx:9767:210:7"/><polygon points="680,420 730,412 700,430" fill="#5C9050" data-om-id="jsx:/https:/61b94bfd-445d-4bc1-b890-ed607e683758.claudeusercontent.com/v1/design/projects/61b94bfd-445d-4bc1-b890-ed607e683758/serve/screens-core.jsx:9832:211:7"/><polygon points="370,430 388,432 380,448 366,448" fill="#1A1208" data-om-id="jsx:/https:/61b94bfd-445d-4bc1-b890-ed607e683758.claudeusercontent.com/v1/design/projects/61b94bfd-445d-4bc1-b890-ed607e683758/serve/screens-core.jsx:9954:213:7"/> <polygon points="358,448 396,448 400,488 358,488" fill="#1A1208" data-om-id="jsx:/https:/61b94bfd-445d-4bc1-b890-ed607e683758.claudeusercontent.com/v1/design/projects/61b94bfd-445d-4bc1-b890-ed607e683758/serve/screens-core.jsx:10040:214:7"/> <polygon points="360,488 370,488 366,510 358,510" fill="#1A1208" data-om-id="jsx:/https:/61b94bfd-445d-4bc1-b890-ed607e683758.claudeusercontent.com/v1/design/projects/61b94bfd-445d-4bc1-b890-ed607e683758/serve/screens-core.jsx:10132:215:7"/> <polygon points="380,488 392,488 392,510 384,510" fill="#1A1208" data-om-id="jsx:/https:/61b94bfd-445d-4bc1-b890-ed607e683758.claudeusercontent.com/v1/design/projects/61b94bfd-445d-4bc1-b890-ed607e683758/serve/screens-core.jsx:10217:216:7"/> <polygon points="346,452 358,452 358,466 346,466" fill="#1A1208" data-om-id="jsx:/https:/61b94bfd-445d-4bc1-b890-ed607e683758.claudeusercontent.com/v1/design/projects/61b94bfd-445d-4bc1-b890-ed607e683758/serve/screens-core.jsx:10344:218:7"/><polygon points="348,454 356,454 356,464 348,464" fill="#FFE070" data-om-id="jsx:/https:/61b94bfd-445d-4bc1-b890-ed607e683758.claudeusercontent.com/v1/design/projects/61b94bfd-445d-4bc1-b890-ed607e683758/serve/screens-core.jsx:10417:219:7"/><circle cx="352" cy="459" r="14" fill="#FFE070" opacity="0.25" data-om-id="jsx:/https:/61b94bfd-445d-4bc1-b890-ed607e683758.claudeusercontent.com/v1/design/projects/61b94bfd-445d-4bc1-b890-ed607e683758/serve/screens-core.jsx:10490:220:7"/><circle cx="352" cy="459" r="8" fill="#FFF4C8" opacity="0.5" data-om-id="jsx:/https:/61b94bfd-445d-4bc1-b890-ed607e683758.claudeusercontent.com/v1/design/projects/61b94bfd-445d-4bc1-b890-ed607e683758/serve/screens-core.jsx:10561:221:7"/></svg>